%TF.GenerationSoftware,KiCad,Pcbnew,9.0.7*%
%TF.CreationDate,2026-04-25T17:50:44+02:00*%
%TF.ProjectId,under_pressure,756e6465-725f-4707-9265-73737572652e,rev?*%
%TF.SameCoordinates,Original*%
%TF.FileFunction,Copper,L1,Top*%
%TF.FilePolarity,Positive*%
%FSLAX46Y46*%
G04 Gerber Fmt 4.6, Leading zero omitted, Abs format (unit mm)*
G04 Created by KiCad (PCBNEW 9.0.7) date 2026-04-25 17:50:44*
%MOMM*%
%LPD*%
G01*
G04 APERTURE LIST*
G04 Aperture macros list*
%AMRoundRect*
0 Rectangle with rounded corners*
0 $1 Rounding radius*
0 $2 $3 $4 $5 $6 $7 $8 $9 X,Y pos of 4 corners*
0 Add a 4 corners polygon primitive as box body*
4,1,4,$2,$3,$4,$5,$6,$7,$8,$9,$2,$3,0*
0 Add four circle primitives for the rounded corners*
1,1,$1+$1,$2,$3*
1,1,$1+$1,$4,$5*
1,1,$1+$1,$6,$7*
1,1,$1+$1,$8,$9*
0 Add four rect primitives between the rounded corners*
20,1,$1+$1,$2,$3,$4,$5,0*
20,1,$1+$1,$4,$5,$6,$7,0*
20,1,$1+$1,$6,$7,$8,$9,0*
20,1,$1+$1,$8,$9,$2,$3,0*%
G04 Aperture macros list end*
%TA.AperFunction,ComponentPad*%
%ADD10RoundRect,0.250000X-0.550000X-0.550000X0.550000X-0.550000X0.550000X0.550000X-0.550000X0.550000X0*%
%TD*%
%TA.AperFunction,ComponentPad*%
%ADD11C,1.600000*%
%TD*%
%TA.AperFunction,ComponentPad*%
%ADD12R,1.800000X1.800000*%
%TD*%
%TA.AperFunction,ComponentPad*%
%ADD13C,1.800000*%
%TD*%
%TA.AperFunction,ComponentPad*%
%ADD14RoundRect,0.250000X0.550000X0.550000X-0.550000X0.550000X-0.550000X-0.550000X0.550000X-0.550000X0*%
%TD*%
%TA.AperFunction,ComponentPad*%
%ADD15RoundRect,0.250000X0.550000X-0.550000X0.550000X0.550000X-0.550000X0.550000X-0.550000X-0.550000X0*%
%TD*%
%TA.AperFunction,ComponentPad*%
%ADD16RoundRect,0.250000X-0.550000X0.550000X-0.550000X-0.550000X0.550000X-0.550000X0.550000X0.550000X0*%
%TD*%
%TA.AperFunction,ComponentPad*%
%ADD17R,3.000000X3.000000*%
%TD*%
%TA.AperFunction,ComponentPad*%
%ADD18C,3.000000*%
%TD*%
%TA.AperFunction,Conductor*%
%ADD19C,0.200000*%
%TD*%
G04 APERTURE END LIST*
D10*
%TO.P,C3,1*%
%TO.N,Net-(U1A-+)*%
X134540000Y-97515000D03*
D11*
%TO.P,C3,2*%
%TO.N,GND*%
X137040000Y-97515000D03*
%TD*%
%TO.P,R5,1*%
%TO.N,Net-(U2A-+)*%
X131920000Y-105015000D03*
%TO.P,R5,2*%
%TO.N,Net-(U1A-+)*%
X139540000Y-105015000D03*
%TD*%
%TO.P,C8,1*%
%TO.N,Net-(C13-Pad1)*%
X143040000Y-115515000D03*
%TO.P,C8,2*%
%TO.N,GND*%
X145540000Y-115515000D03*
%TD*%
D12*
%TO.P,D1,1,K*%
%TO.N,GND*%
X182550000Y-100015000D03*
D13*
%TO.P,D1,2,A*%
%TO.N,Net-(D1-A)*%
X180010000Y-100015000D03*
%TD*%
D11*
%TO.P,C5,1*%
%TO.N,Net-(C5-Pad1)*%
X177350000Y-111015000D03*
%TO.P,C5,2*%
%TO.N,Net-(C5-Pad2)*%
X174850000Y-111015000D03*
%TD*%
D14*
%TO.P,C1,1*%
%TO.N,Net-(BT2-+)*%
X125540000Y-97515000D03*
D11*
%TO.P,C1,2*%
%TO.N,GND*%
X123040000Y-97515000D03*
%TD*%
%TO.P,C10,1*%
%TO.N,Net-(C10-Pad1)*%
X168850000Y-106015000D03*
%TO.P,C10,2*%
%TO.N,Net-(C10-Pad2)*%
X171350000Y-106015000D03*
%TD*%
%TO.P,C7,1*%
%TO.N,Net-(U2A--)*%
X152040000Y-105515000D03*
%TO.P,C7,2*%
%TO.N,Net-(C7-Pad2)*%
X149540000Y-105515000D03*
%TD*%
%TO.P,R2,1*%
%TO.N,Net-(BT2-+)*%
X135540000Y-83895000D03*
%TO.P,R2,2*%
%TO.N,Net-(U1A-+)*%
X135540000Y-91515000D03*
%TD*%
%TO.P,C9,1*%
%TO.N,Net-(U1A--)*%
X165350000Y-106015000D03*
%TO.P,C9,2*%
%TO.N,Net-(C10-Pad1)*%
X162850000Y-106015000D03*
%TD*%
%TO.P,C6,1*%
%TO.N,GND*%
X139540000Y-111515000D03*
%TO.P,C6,2*%
%TO.N,Net-(C2-Pad1)*%
X137040000Y-111515000D03*
%TD*%
D14*
%TO.P,BT2,1,+*%
%TO.N,Net-(BT2-+)*%
X131540000Y-83895000D03*
D11*
%TO.P,BT2,2,-*%
%TO.N,GND*%
X127940000Y-83895000D03*
%TD*%
D15*
%TO.P,U1,1*%
%TO.N,Net-(C10-Pad1)*%
X165500000Y-100635000D03*
D11*
%TO.P,U1,2,-*%
%TO.N,Net-(U1A--)*%
X168040000Y-100635000D03*
%TO.P,U1,3,+*%
%TO.N,Net-(U1A-+)*%
X170580000Y-100635000D03*
%TO.P,U1,4,V-*%
%TO.N,GND*%
X173120000Y-100635000D03*
%TO.P,U1,5*%
%TO.N,N/C*%
X173120000Y-93015000D03*
%TO.P,U1,6*%
X170580000Y-93015000D03*
%TO.P,U1,7*%
X168040000Y-93015000D03*
%TO.P,U1,8,V+*%
%TO.N,Net-(BT2-+)*%
X165500000Y-93015000D03*
%TD*%
D12*
%TO.P,D2,1,K*%
%TO.N,Net-(D1-A)*%
X180000000Y-92015000D03*
D13*
%TO.P,D2,2,A*%
%TO.N,GND*%
X182540000Y-92015000D03*
%TD*%
D16*
%TO.P,J1,S*%
%TO.N,GND*%
X119540000Y-108515000D03*
D11*
%TO.P,J1,T*%
%TO.N,Net-(J1-PadT)*%
X119540000Y-112115000D03*
%TD*%
%TO.P,R11,1*%
%TO.N,Net-(C13-Pad1)*%
X148420000Y-115515000D03*
%TO.P,R11,2*%
%TO.N,Net-(U2A--)*%
X156040000Y-115515000D03*
%TD*%
D15*
%TO.P,U2,1*%
%TO.N,Net-(C7-Pad2)*%
X149730000Y-100325000D03*
D11*
%TO.P,U2,2,-*%
%TO.N,Net-(U2A--)*%
X152270000Y-100325000D03*
%TO.P,U2,3,+*%
%TO.N,Net-(U2A-+)*%
X154810000Y-100325000D03*
%TO.P,U2,4,V-*%
%TO.N,GND*%
X157350000Y-100325000D03*
%TO.P,U2,5*%
%TO.N,N/C*%
X157350000Y-92705000D03*
%TO.P,U2,6*%
X154810000Y-92705000D03*
%TO.P,U2,7*%
X152270000Y-92705000D03*
%TO.P,U2,8,V+*%
%TO.N,Net-(BT2-+)*%
X149730000Y-92705000D03*
%TD*%
%TO.P,R13,1*%
%TO.N,Net-(C10-Pad2)*%
X180730000Y-111015000D03*
%TO.P,R13,2*%
%TO.N,Net-(D1-A)*%
X188350000Y-111015000D03*
%TD*%
%TO.P,C11,1*%
%TO.N,Net-(D1-A)*%
X180025000Y-86015000D03*
%TO.P,C11,2*%
%TO.N,GND*%
X182525000Y-86015000D03*
%TD*%
D16*
%TO.P,J3,S*%
%TO.N,GND*%
X188040000Y-97515000D03*
D11*
%TO.P,J3,T*%
%TO.N,Net-(D1-A)*%
X188040000Y-101115000D03*
%TD*%
%TO.P,R4,1*%
%TO.N,Net-(U1A-+)*%
X124040000Y-91515000D03*
%TO.P,R4,2*%
%TO.N,GND*%
X124040000Y-83895000D03*
%TD*%
%TO.P,R1,1*%
%TO.N,GND*%
X120920000Y-105015000D03*
%TO.P,R1,2*%
%TO.N,Net-(U2A-+)*%
X128540000Y-105015000D03*
%TD*%
%TO.P,C2,1*%
%TO.N,Net-(C2-Pad1)*%
X134540000Y-111515000D03*
%TO.P,C2,2*%
%TO.N,Net-(U2A-+)*%
X132040000Y-111515000D03*
%TD*%
%TO.P,R7,1*%
%TO.N,Net-(J1-PadT)*%
X120730000Y-115015000D03*
%TO.P,R7,2*%
%TO.N,Net-(C2-Pad1)*%
X128350000Y-115015000D03*
%TD*%
%TO.P,C13,1*%
%TO.N,Net-(C13-Pad1)*%
X143040000Y-111515000D03*
%TO.P,C13,2*%
%TO.N,GND*%
X145540000Y-111515000D03*
%TD*%
%TO.P,R12,1*%
%TO.N,Net-(U1A--)*%
X166350000Y-110515000D03*
%TO.P,R12,2*%
%TO.N,Net-(C10-Pad1)*%
X158730000Y-110515000D03*
%TD*%
%TO.P,R8,1*%
%TO.N,Net-(U2A--)*%
X160040000Y-115515000D03*
%TO.P,R8,2*%
%TO.N,Net-(R8-Pad2)*%
X160040000Y-123135000D03*
%TD*%
D17*
%TO.P,RV1,1,1*%
%TO.N,Net-(R8-Pad2)*%
X169040000Y-123015000D03*
D18*
%TO.P,RV1,2,2*%
%TO.N,Net-(C7-Pad2)*%
X174040000Y-123015000D03*
%TO.P,RV1,3,3*%
%TO.N,Net-(C5-Pad1)*%
X179040000Y-123015000D03*
%TD*%
D11*
%TO.P,R6,1*%
%TO.N,Net-(C5-Pad2)*%
X174730000Y-106515000D03*
%TO.P,R6,2*%
%TO.N,Net-(U1A--)*%
X182350000Y-106515000D03*
%TD*%
%TO.P,C12,1*%
%TO.N,Net-(C10-Pad1)*%
X168850000Y-111015000D03*
%TO.P,C12,2*%
%TO.N,Net-(C10-Pad2)*%
X171350000Y-111015000D03*
%TD*%
D19*
%TO.N,Net-(BT2-+)*%
X135540000Y-83895000D02*
X135920000Y-83895000D01*
X164089000Y-91604000D02*
X150831000Y-91604000D01*
X129660000Y-83895000D02*
X122939000Y-90616000D01*
X150831000Y-91604000D02*
X149730000Y-92705000D01*
X165500000Y-93015000D02*
X164089000Y-91604000D01*
X122939000Y-94914000D02*
X125540000Y-97515000D01*
X135920000Y-83895000D02*
X144730000Y-92705000D01*
X122939000Y-90616000D02*
X122939000Y-94914000D01*
X131540000Y-83895000D02*
X129660000Y-83895000D01*
X131540000Y-83895000D02*
X135540000Y-83895000D01*
X144730000Y-92705000D02*
X149730000Y-92705000D01*
%TO.N,GND*%
X123040000Y-102515000D02*
X123040000Y-97515000D01*
X122040000Y-117015000D02*
X122040000Y-109015000D01*
X129041000Y-82794000D02*
X179304000Y-82794000D01*
X157350000Y-100325000D02*
X158542000Y-99133000D01*
X182550000Y-100015000D02*
X185540000Y-100015000D01*
X134040000Y-117015000D02*
X122040000Y-117015000D01*
X174221000Y-99534000D02*
X173120000Y-100635000D01*
X121540000Y-108515000D02*
X119540000Y-108515000D01*
X182525000Y-86015000D02*
X181424000Y-84914000D01*
X139540000Y-111515000D02*
X134040000Y-117015000D01*
X139540000Y-111515000D02*
X140641000Y-110414000D01*
X140641000Y-110414000D02*
X144439000Y-110414000D01*
X171618000Y-99133000D02*
X173120000Y-100635000D01*
X122240001Y-85694999D02*
X124040000Y-83895000D01*
X185540000Y-100015000D02*
X188040000Y-97515000D01*
X182540000Y-92015000D02*
X182540000Y-86030000D01*
X182540000Y-86030000D02*
X182525000Y-86015000D01*
X120920000Y-105015000D02*
X120920000Y-104635000D01*
X122240001Y-96715001D02*
X122240001Y-85694999D01*
X119540000Y-108515000D02*
X119540000Y-106395000D01*
X181424000Y-84914000D02*
X179568950Y-84914000D01*
X123040000Y-97515000D02*
X122240001Y-96715001D01*
X137040000Y-97515000D02*
X154540000Y-97515000D01*
X145540000Y-111515000D02*
X145540000Y-115515000D01*
X188040000Y-97515000D02*
X182540000Y-92015000D01*
X182540000Y-100005000D02*
X182550000Y-100015000D01*
X174221000Y-90261950D02*
X174221000Y-99534000D01*
X179304000Y-82794000D02*
X182525000Y-86015000D01*
X122040000Y-109015000D02*
X121540000Y-108515000D01*
X124040000Y-83895000D02*
X127940000Y-83895000D01*
X179568950Y-84914000D02*
X174221000Y-90261950D01*
X119540000Y-106395000D02*
X120920000Y-105015000D01*
X144439000Y-110414000D02*
X145540000Y-111515000D01*
X120920000Y-104635000D02*
X123040000Y-102515000D01*
X127940000Y-83895000D02*
X129041000Y-82794000D01*
X154540000Y-97515000D02*
X157350000Y-100325000D01*
X158542000Y-99133000D02*
X171618000Y-99133000D01*
%TO.N,Net-(U2A-+)*%
X153308000Y-98823000D02*
X138112000Y-98823000D01*
X131920000Y-111395000D02*
X132040000Y-111515000D01*
X131920000Y-105015000D02*
X128540000Y-105015000D01*
X138112000Y-98823000D02*
X131920000Y-105015000D01*
X154810000Y-100325000D02*
X153308000Y-98823000D01*
X131920000Y-105015000D02*
X131920000Y-111395000D01*
%TO.N,Net-(C2-Pad1)*%
X133439000Y-112616000D02*
X134540000Y-111515000D01*
X128350000Y-113907000D02*
X129641000Y-112616000D01*
X128350000Y-115015000D02*
X128350000Y-113907000D01*
X137040000Y-111515000D02*
X134540000Y-111515000D01*
X129641000Y-112616000D02*
X133439000Y-112616000D01*
%TO.N,Net-(U1A-+)*%
X134482950Y-97515000D02*
X127439000Y-104558950D01*
X128354150Y-116515000D02*
X133597050Y-116515000D01*
X127249000Y-114558950D02*
X127249000Y-115471050D01*
X134540000Y-97515000D02*
X134482950Y-97515000D01*
X157806050Y-101426000D02*
X154015950Y-101426000D01*
X127439000Y-114368950D02*
X127249000Y-114558950D01*
X153371000Y-100781050D02*
X153371000Y-99868950D01*
X152726050Y-99224000D02*
X145331000Y-99224000D01*
X145331000Y-99224000D02*
X139540000Y-105015000D01*
X169479000Y-99534000D02*
X159698050Y-99534000D01*
X154015950Y-101426000D02*
X153371000Y-100781050D01*
X153371000Y-99868950D02*
X152726050Y-99224000D01*
X170580000Y-100635000D02*
X169479000Y-99534000D01*
X133597050Y-116515000D02*
X138278100Y-111833950D01*
X138278100Y-111833950D02*
X138278100Y-106276900D01*
X138278100Y-106276900D02*
X139540000Y-105015000D01*
X124040000Y-91515000D02*
X135540000Y-91515000D01*
X127893950Y-116116000D02*
X127955150Y-116116000D01*
X135540000Y-92015000D02*
X134540000Y-93015000D01*
X134540000Y-93015000D02*
X134540000Y-97515000D01*
X127955150Y-116116000D02*
X128354150Y-116515000D01*
X127439000Y-104558950D02*
X127439000Y-114368950D01*
X135540000Y-91515000D02*
X135540000Y-92015000D01*
X159698050Y-99534000D02*
X157806050Y-101426000D01*
X127249000Y-115471050D02*
X127893950Y-116116000D01*
%TO.N,Net-(C5-Pad2)*%
X174850000Y-111015000D02*
X174850000Y-106635000D01*
X174850000Y-106635000D02*
X174730000Y-106515000D01*
%TO.N,Net-(C5-Pad1)*%
X177350000Y-121325000D02*
X179040000Y-123015000D01*
X177350000Y-111015000D02*
X177350000Y-121325000D01*
X179040000Y-123015000D02*
X179040000Y-122515000D01*
%TO.N,Net-(U2A--)*%
X152040000Y-100555000D02*
X152270000Y-100325000D01*
X156040000Y-115515000D02*
X156040000Y-109515000D01*
X156040000Y-109515000D02*
X152040000Y-105515000D01*
X152040000Y-105515000D02*
X152040000Y-100555000D01*
X156040000Y-115515000D02*
X160040000Y-115515000D01*
%TO.N,Net-(C7-Pad2)*%
X149730000Y-105325000D02*
X149540000Y-105515000D01*
X172239000Y-121214000D02*
X174040000Y-123015000D01*
X149540000Y-105515000D02*
X149540000Y-111015000D01*
X159739000Y-121214000D02*
X172239000Y-121214000D01*
X149730000Y-100325000D02*
X149730000Y-105325000D01*
X149540000Y-111015000D02*
X159739000Y-121214000D01*
%TO.N,Net-(C13-Pad1)*%
X143040000Y-115515000D02*
X143040000Y-111515000D01*
X143040000Y-115515000D02*
X144141000Y-116616000D01*
X147319000Y-116616000D02*
X148420000Y-115515000D01*
X144141000Y-116616000D02*
X147319000Y-116616000D01*
%TO.N,Net-(U1A--)*%
X168040000Y-100635000D02*
X168040000Y-103325000D01*
X169141000Y-101736000D02*
X177571000Y-101736000D01*
X177571000Y-101736000D02*
X182350000Y-106515000D01*
X166350000Y-107825000D02*
X166350000Y-110515000D01*
X168040000Y-103325000D02*
X165350000Y-106015000D01*
X168040000Y-100635000D02*
X169141000Y-101736000D01*
X165350000Y-106825000D02*
X166350000Y-107825000D01*
X165350000Y-106015000D02*
X165350000Y-106825000D01*
%TO.N,Net-(C10-Pad1)*%
X168249000Y-111616000D02*
X168850000Y-111015000D01*
X162850000Y-106015000D02*
X158730000Y-110135000D01*
X165500000Y-100635000D02*
X165500000Y-103365000D01*
X165500000Y-100635000D02*
X164249000Y-101886000D01*
X162850000Y-106015000D02*
X162850000Y-106395000D01*
X162850000Y-106015000D02*
X162850000Y-105595000D01*
X165893950Y-111616000D02*
X168249000Y-111616000D01*
X164249000Y-101886000D02*
X164249000Y-109971050D01*
X165500000Y-103365000D02*
X162850000Y-106015000D01*
X158730000Y-110135000D02*
X158730000Y-110515000D01*
X164249000Y-109971050D02*
X165893950Y-111616000D01*
X168850000Y-106015000D02*
X168850000Y-111015000D01*
%TO.N,Net-(C10-Pad2)*%
X172562000Y-112227000D02*
X176249000Y-112227000D01*
X179629000Y-109914000D02*
X180730000Y-111015000D01*
X171350000Y-111015000D02*
X172562000Y-112227000D01*
X171350000Y-111015000D02*
X171350000Y-106015000D01*
X176249000Y-110558950D02*
X176893950Y-109914000D01*
X176249000Y-112227000D02*
X176249000Y-110558950D01*
X176893950Y-109914000D02*
X179629000Y-109914000D01*
%TO.N,Net-(D1-A)*%
X180025000Y-91990000D02*
X180000000Y-92015000D01*
X180010000Y-100015000D02*
X180010000Y-92025000D01*
X180000000Y-86040000D02*
X180025000Y-86015000D01*
X179970000Y-99975000D02*
X180010000Y-100015000D01*
X188040000Y-101115000D02*
X187240001Y-101914999D01*
X180025000Y-100000000D02*
X180010000Y-100015000D01*
X180010000Y-92025000D02*
X180000000Y-92015000D01*
X188350000Y-111015000D02*
X188350000Y-101425000D01*
X180000000Y-92015000D02*
X180000000Y-86040000D01*
X180000000Y-100005000D02*
X180010000Y-100015000D01*
X187240001Y-101914999D02*
X181909999Y-101914999D01*
X188350000Y-101425000D02*
X188040000Y-101115000D01*
X181909999Y-101914999D02*
X180010000Y-100015000D01*
%TO.N,Net-(R8-Pad2)*%
X160040000Y-123135000D02*
X168920000Y-123135000D01*
X168920000Y-123135000D02*
X169040000Y-123015000D01*
%TO.N,Net-(J1-PadT)*%
X120730000Y-115015000D02*
X120730000Y-113305000D01*
X120730000Y-113305000D02*
X119650000Y-112225000D01*
%TD*%
D10*
%TO.P,C3,1*%
%TO.N,Net-(U1A-+)*%
X134540000Y-97515000D03*
D11*
%TO.P,C3,2*%
%TO.N,GND*%
X137040000Y-97515000D03*
%TD*%
%TO.P,R5,1*%
%TO.N,Net-(U2A-+)*%
X131920000Y-105015000D03*
%TO.P,R5,2*%
%TO.N,Net-(U1A-+)*%
X139540000Y-105015000D03*
%TD*%
%TO.P,C8,1*%
%TO.N,Net-(C13-Pad1)*%
X143040000Y-115515000D03*
%TO.P,C8,2*%
%TO.N,GND*%
X145540000Y-115515000D03*
%TD*%
D12*
%TO.P,D1,1,K*%
%TO.N,GND*%
X182550000Y-100015000D03*
D13*
%TO.P,D1,2,A*%
%TO.N,Net-(D1-A)*%
X180010000Y-100015000D03*
%TD*%
D11*
%TO.P,C5,1*%
%TO.N,Net-(C5-Pad1)*%
X177350000Y-111015000D03*
%TO.P,C5,2*%
%TO.N,Net-(C5-Pad2)*%
X174850000Y-111015000D03*
%TD*%
D14*
%TO.P,C1,1*%
%TO.N,Net-(BT2-+)*%
X125540000Y-97515000D03*
D11*
%TO.P,C1,2*%
%TO.N,GND*%
X123040000Y-97515000D03*
%TD*%
%TO.P,C10,1*%
%TO.N,Net-(C10-Pad1)*%
X168850000Y-106015000D03*
%TO.P,C10,2*%
%TO.N,Net-(C10-Pad2)*%
X171350000Y-106015000D03*
%TD*%
%TO.P,C7,1*%
%TO.N,Net-(U2A--)*%
X152040000Y-105515000D03*
%TO.P,C7,2*%
%TO.N,Net-(C7-Pad2)*%
X149540000Y-105515000D03*
%TD*%
%TO.P,R2,1*%
%TO.N,Net-(BT2-+)*%
X135540000Y-83895000D03*
%TO.P,R2,2*%
%TO.N,Net-(U1A-+)*%
X135540000Y-91515000D03*
%TD*%
%TO.P,C9,1*%
%TO.N,Net-(U1A--)*%
X165350000Y-106015000D03*
%TO.P,C9,2*%
%TO.N,Net-(C10-Pad1)*%
X162850000Y-106015000D03*
%TD*%
%TO.P,C6,1*%
%TO.N,GND*%
X139540000Y-111515000D03*
%TO.P,C6,2*%
%TO.N,Net-(C2-Pad1)*%
X137040000Y-111515000D03*
%TD*%
D14*
%TO.P,BT2,1,+*%
%TO.N,Net-(BT2-+)*%
X131540000Y-83895000D03*
D11*
%TO.P,BT2,2,-*%
%TO.N,GND*%
X127940000Y-83895000D03*
%TD*%
D15*
%TO.P,U1,1*%
%TO.N,Net-(C10-Pad1)*%
X165500000Y-100635000D03*
D11*
%TO.P,U1,2,-*%
%TO.N,Net-(U1A--)*%
X168040000Y-100635000D03*
%TO.P,U1,3,+*%
%TO.N,Net-(U1A-+)*%
X170580000Y-100635000D03*
%TO.P,U1,4,V-*%
%TO.N,GND*%
X173120000Y-100635000D03*
%TO.P,U1,5*%
%TO.N,N/C*%
X173120000Y-93015000D03*
%TO.P,U1,6*%
X170580000Y-93015000D03*
%TO.P,U1,7*%
X168040000Y-93015000D03*
%TO.P,U1,8,V+*%
%TO.N,Net-(BT2-+)*%
X165500000Y-93015000D03*
%TD*%
D12*
%TO.P,D2,1,K*%
%TO.N,Net-(D1-A)*%
X180000000Y-92015000D03*
D13*
%TO.P,D2,2,A*%
%TO.N,GND*%
X182540000Y-92015000D03*
%TD*%
D16*
%TO.P,J1,S*%
%TO.N,GND*%
X119540000Y-108515000D03*
D11*
%TO.P,J1,T*%
%TO.N,Net-(J1-PadT)*%
X119540000Y-112115000D03*
%TD*%
%TO.P,R11,1*%
%TO.N,Net-(C13-Pad1)*%
X148420000Y-115515000D03*
%TO.P,R11,2*%
%TO.N,Net-(U2A--)*%
X156040000Y-115515000D03*
%TD*%
D15*
%TO.P,U2,1*%
%TO.N,Net-(C7-Pad2)*%
X149730000Y-100325000D03*
D11*
%TO.P,U2,2,-*%
%TO.N,Net-(U2A--)*%
X152270000Y-100325000D03*
%TO.P,U2,3,+*%
%TO.N,Net-(U2A-+)*%
X154810000Y-100325000D03*
%TO.P,U2,4,V-*%
%TO.N,GND*%
X157350000Y-100325000D03*
%TO.P,U2,5*%
%TO.N,N/C*%
X157350000Y-92705000D03*
%TO.P,U2,6*%
X154810000Y-92705000D03*
%TO.P,U2,7*%
X152270000Y-92705000D03*
%TO.P,U2,8,V+*%
%TO.N,Net-(BT2-+)*%
X149730000Y-92705000D03*
%TD*%
%TO.P,R13,1*%
%TO.N,Net-(C10-Pad2)*%
X180730000Y-111015000D03*
%TO.P,R13,2*%
%TO.N,Net-(D1-A)*%
X188350000Y-111015000D03*
%TD*%
%TO.P,C11,1*%
%TO.N,Net-(D1-A)*%
X180025000Y-86015000D03*
%TO.P,C11,2*%
%TO.N,GND*%
X182525000Y-86015000D03*
%TD*%
D16*
%TO.P,J3,S*%
%TO.N,GND*%
X188040000Y-97515000D03*
D11*
%TO.P,J3,T*%
%TO.N,Net-(D1-A)*%
X188040000Y-101115000D03*
%TD*%
%TO.P,R4,1*%
%TO.N,Net-(U1A-+)*%
X124040000Y-91515000D03*
%TO.P,R4,2*%
%TO.N,GND*%
X124040000Y-83895000D03*
%TD*%
%TO.P,R1,1*%
%TO.N,GND*%
X120920000Y-105015000D03*
%TO.P,R1,2*%
%TO.N,Net-(U2A-+)*%
X128540000Y-105015000D03*
%TD*%
%TO.P,C2,1*%
%TO.N,Net-(C2-Pad1)*%
X134540000Y-111515000D03*
%TO.P,C2,2*%
%TO.N,Net-(U2A-+)*%
X132040000Y-111515000D03*
%TD*%
%TO.P,R7,1*%
%TO.N,Net-(J1-PadT)*%
X120730000Y-115015000D03*
%TO.P,R7,2*%
%TO.N,Net-(C2-Pad1)*%
X128350000Y-115015000D03*
%TD*%
%TO.P,C13,1*%
%TO.N,Net-(C13-Pad1)*%
X143040000Y-111515000D03*
%TO.P,C13,2*%
%TO.N,GND*%
X145540000Y-111515000D03*
%TD*%
%TO.P,R12,1*%
%TO.N,Net-(U1A--)*%
X166350000Y-110515000D03*
%TO.P,R12,2*%
%TO.N,Net-(C10-Pad1)*%
X158730000Y-110515000D03*
%TD*%
%TO.P,R8,1*%
%TO.N,Net-(U2A--)*%
X160040000Y-115515000D03*
%TO.P,R8,2*%
%TO.N,Net-(R8-Pad2)*%
X160040000Y-123135000D03*
%TD*%
D17*
%TO.P,RV1,1,1*%
%TO.N,Net-(R8-Pad2)*%
X169040000Y-123015000D03*
D18*
%TO.P,RV1,2,2*%
%TO.N,Net-(C7-Pad2)*%
X174040000Y-123015000D03*
%TO.P,RV1,3,3*%
%TO.N,Net-(C5-Pad1)*%
X179040000Y-123015000D03*
%TD*%
D11*
%TO.P,R6,1*%
%TO.N,Net-(C5-Pad2)*%
X174730000Y-106515000D03*
%TO.P,R6,2*%
%TO.N,Net-(U1A--)*%
X182350000Y-106515000D03*
%TD*%
%TO.P,C12,1*%
%TO.N,Net-(C10-Pad1)*%
X168850000Y-111015000D03*
%TO.P,C12,2*%
%TO.N,Net-(C10-Pad2)*%
X171350000Y-111015000D03*
%TD*%
M02*
