%TF.GenerationSoftware,KiCad,Pcbnew,9.0.7*%
%TF.CreationDate,2026-04-25T17:50:44+02:00*%
%TF.ProjectId,under_pressure,756e6465-725f-4707-9265-73737572652e,rev?*%
%TF.SameCoordinates,Original*%
%TF.FileFunction,Legend,Bot*%
%TF.FilePolarity,Positive*%
%FSLAX46Y46*%
G04 Gerber Fmt 4.6, Leading zero omitted, Abs format (unit mm)*
G04 Created by KiCad (PCBNEW 9.0.7) date 2026-04-25 17:50:44*
%MOMM*%
%LPD*%
G01*
G04 APERTURE LIST*
G04 Aperture macros list*
%AMRoundRect*
0 Rectangle with rounded corners*
0 $1 Rounding radius*
0 $2 $3 $4 $5 $6 $7 $8 $9 X,Y pos of 4 corners*
0 Add a 4 corners polygon primitive as box body*
4,1,4,$2,$3,$4,$5,$6,$7,$8,$9,$2,$3,0*
0 Add four circle primitives for the rounded corners*
1,1,$1+$1,$2,$3*
1,1,$1+$1,$4,$5*
1,1,$1+$1,$6,$7*
1,1,$1+$1,$8,$9*
0 Add four rect primitives between the rounded corners*
20,1,$1+$1,$2,$3,$4,$5,0*
20,1,$1+$1,$4,$5,$6,$7,0*
20,1,$1+$1,$6,$7,$8,$9,0*
20,1,$1+$1,$8,$9,$2,$3,0*%
G04 Aperture macros list end*
%TA.AperFunction,ComponentPad*%
%ADD10RoundRect,0.250000X-0.550000X-0.550000X0.550000X-0.550000X0.550000X0.550000X-0.550000X0.550000X0*%
%TD*%
%TA.AperFunction,ComponentPad*%
%ADD11C,1.600000*%
%TD*%
%TA.AperFunction,ComponentPad*%
%ADD12R,1.800000X1.800000*%
%TD*%
%TA.AperFunction,ComponentPad*%
%ADD13C,1.800000*%
%TD*%
%TA.AperFunction,ComponentPad*%
%ADD14RoundRect,0.250000X0.550000X0.550000X-0.550000X0.550000X-0.550000X-0.550000X0.550000X-0.550000X0*%
%TD*%
%TA.AperFunction,ComponentPad*%
%ADD15RoundRect,0.250000X0.550000X-0.550000X0.550000X0.550000X-0.550000X0.550000X-0.550000X-0.550000X0*%
%TD*%
%TA.AperFunction,ComponentPad*%
%ADD16RoundRect,0.250000X-0.550000X0.550000X-0.550000X-0.550000X0.550000X-0.550000X0.550000X0.550000X0*%
%TD*%
%TA.AperFunction,ComponentPad*%
%ADD17R,3.000000X3.000000*%
%TD*%
%TA.AperFunction,ComponentPad*%
%ADD18C,3.000000*%
%TD*%
G04 APERTURE END LIST*
D10*
%TO.P,C3,1*%
%TO.N,Net-(U1A-+)*%
X134540000Y-97515000D03*
D11*
%TO.P,C3,2*%
%TO.N,GND*%
X137040000Y-97515000D03*
%TD*%
%TO.P,R5,1*%
%TO.N,Net-(U2A-+)*%
X131920000Y-105015000D03*
%TO.P,R5,2*%
%TO.N,Net-(U1A-+)*%
X139540000Y-105015000D03*
%TD*%
%TO.P,C8,1*%
%TO.N,Net-(C13-Pad1)*%
X143040000Y-115515000D03*
%TO.P,C8,2*%
%TO.N,GND*%
X145540000Y-115515000D03*
%TD*%
D12*
%TO.P,D1,1,K*%
%TO.N,GND*%
X182550000Y-100015000D03*
D13*
%TO.P,D1,2,A*%
%TO.N,Net-(D1-A)*%
X180010000Y-100015000D03*
%TD*%
D11*
%TO.P,C5,1*%
%TO.N,Net-(C5-Pad1)*%
X177350000Y-111015000D03*
%TO.P,C5,2*%
%TO.N,Net-(C5-Pad2)*%
X174850000Y-111015000D03*
%TD*%
D14*
%TO.P,C1,1*%
%TO.N,Net-(BT2-+)*%
X125540000Y-97515000D03*
D11*
%TO.P,C1,2*%
%TO.N,GND*%
X123040000Y-97515000D03*
%TD*%
%TO.P,C10,1*%
%TO.N,Net-(C10-Pad1)*%
X168850000Y-106015000D03*
%TO.P,C10,2*%
%TO.N,Net-(C10-Pad2)*%
X171350000Y-106015000D03*
%TD*%
%TO.P,C7,1*%
%TO.N,Net-(U2A--)*%
X152040000Y-105515000D03*
%TO.P,C7,2*%
%TO.N,Net-(C7-Pad2)*%
X149540000Y-105515000D03*
%TD*%
%TO.P,R2,1*%
%TO.N,Net-(BT2-+)*%
X135540000Y-83895000D03*
%TO.P,R2,2*%
%TO.N,Net-(U1A-+)*%
X135540000Y-91515000D03*
%TD*%
%TO.P,C9,1*%
%TO.N,Net-(U1A--)*%
X165350000Y-106015000D03*
%TO.P,C9,2*%
%TO.N,Net-(C10-Pad1)*%
X162850000Y-106015000D03*
%TD*%
%TO.P,C6,1*%
%TO.N,GND*%
X139540000Y-111515000D03*
%TO.P,C6,2*%
%TO.N,Net-(C2-Pad1)*%
X137040000Y-111515000D03*
%TD*%
D14*
%TO.P,BT2,1,+*%
%TO.N,Net-(BT2-+)*%
X131540000Y-83895000D03*
D11*
%TO.P,BT2,2,-*%
%TO.N,GND*%
X127940000Y-83895000D03*
%TD*%
D15*
%TO.P,U1,1*%
%TO.N,Net-(C10-Pad1)*%
X165500000Y-100635000D03*
D11*
%TO.P,U1,2,-*%
%TO.N,Net-(U1A--)*%
X168040000Y-100635000D03*
%TO.P,U1,3,+*%
%TO.N,Net-(U1A-+)*%
X170580000Y-100635000D03*
%TO.P,U1,4,V-*%
%TO.N,GND*%
X173120000Y-100635000D03*
%TO.P,U1,5*%
%TO.N,N/C*%
X173120000Y-93015000D03*
%TO.P,U1,6*%
X170580000Y-93015000D03*
%TO.P,U1,7*%
X168040000Y-93015000D03*
%TO.P,U1,8,V+*%
%TO.N,Net-(BT2-+)*%
X165500000Y-93015000D03*
%TD*%
D12*
%TO.P,D2,1,K*%
%TO.N,Net-(D1-A)*%
X180000000Y-92015000D03*
D13*
%TO.P,D2,2,A*%
%TO.N,GND*%
X182540000Y-92015000D03*
%TD*%
D16*
%TO.P,J1,S*%
%TO.N,GND*%
X119540000Y-108515000D03*
D11*
%TO.P,J1,T*%
%TO.N,Net-(J1-PadT)*%
X119540000Y-112115000D03*
%TD*%
%TO.P,R11,1*%
%TO.N,Net-(C13-Pad1)*%
X148420000Y-115515000D03*
%TO.P,R11,2*%
%TO.N,Net-(U2A--)*%
X156040000Y-115515000D03*
%TD*%
D15*
%TO.P,U2,1*%
%TO.N,Net-(C7-Pad2)*%
X149730000Y-100325000D03*
D11*
%TO.P,U2,2,-*%
%TO.N,Net-(U2A--)*%
X152270000Y-100325000D03*
%TO.P,U2,3,+*%
%TO.N,Net-(U2A-+)*%
X154810000Y-100325000D03*
%TO.P,U2,4,V-*%
%TO.N,GND*%
X157350000Y-100325000D03*
%TO.P,U2,5*%
%TO.N,N/C*%
X157350000Y-92705000D03*
%TO.P,U2,6*%
X154810000Y-92705000D03*
%TO.P,U2,7*%
X152270000Y-92705000D03*
%TO.P,U2,8,V+*%
%TO.N,Net-(BT2-+)*%
X149730000Y-92705000D03*
%TD*%
%TO.P,R13,1*%
%TO.N,Net-(C10-Pad2)*%
X180730000Y-111015000D03*
%TO.P,R13,2*%
%TO.N,Net-(D1-A)*%
X188350000Y-111015000D03*
%TD*%
%TO.P,C11,1*%
%TO.N,Net-(D1-A)*%
X180025000Y-86015000D03*
%TO.P,C11,2*%
%TO.N,GND*%
X182525000Y-86015000D03*
%TD*%
D16*
%TO.P,J3,S*%
%TO.N,GND*%
X188040000Y-97515000D03*
D11*
%TO.P,J3,T*%
%TO.N,Net-(D1-A)*%
X188040000Y-101115000D03*
%TD*%
%TO.P,R4,1*%
%TO.N,Net-(U1A-+)*%
X124040000Y-91515000D03*
%TO.P,R4,2*%
%TO.N,GND*%
X124040000Y-83895000D03*
%TD*%
%TO.P,R1,1*%
%TO.N,GND*%
X120920000Y-105015000D03*
%TO.P,R1,2*%
%TO.N,Net-(U2A-+)*%
X128540000Y-105015000D03*
%TD*%
%TO.P,C2,1*%
%TO.N,Net-(C2-Pad1)*%
X134540000Y-111515000D03*
%TO.P,C2,2*%
%TO.N,Net-(U2A-+)*%
X132040000Y-111515000D03*
%TD*%
%TO.P,R7,1*%
%TO.N,Net-(J1-PadT)*%
X120730000Y-115015000D03*
%TO.P,R7,2*%
%TO.N,Net-(C2-Pad1)*%
X128350000Y-115015000D03*
%TD*%
%TO.P,C13,1*%
%TO.N,Net-(C13-Pad1)*%
X143040000Y-111515000D03*
%TO.P,C13,2*%
%TO.N,GND*%
X145540000Y-111515000D03*
%TD*%
%TO.P,R12,1*%
%TO.N,Net-(U1A--)*%
X166350000Y-110515000D03*
%TO.P,R12,2*%
%TO.N,Net-(C10-Pad1)*%
X158730000Y-110515000D03*
%TD*%
%TO.P,R8,1*%
%TO.N,Net-(U2A--)*%
X160040000Y-115515000D03*
%TO.P,R8,2*%
%TO.N,Net-(R8-Pad2)*%
X160040000Y-123135000D03*
%TD*%
D17*
%TO.P,RV1,1,1*%
%TO.N,Net-(R8-Pad2)*%
X169040000Y-123015000D03*
D18*
%TO.P,RV1,2,2*%
%TO.N,Net-(C7-Pad2)*%
X174040000Y-123015000D03*
%TO.P,RV1,3,3*%
%TO.N,Net-(C5-Pad1)*%
X179040000Y-123015000D03*
%TD*%
D11*
%TO.P,R6,1*%
%TO.N,Net-(C5-Pad2)*%
X174730000Y-106515000D03*
%TO.P,R6,2*%
%TO.N,Net-(U1A--)*%
X182350000Y-106515000D03*
%TD*%
%TO.P,C12,1*%
%TO.N,Net-(C10-Pad1)*%
X168850000Y-111015000D03*
%TO.P,C12,2*%
%TO.N,Net-(C10-Pad2)*%
X171350000Y-111015000D03*
%TD*%
M02*
