%TF.GenerationSoftware,KiCad,Pcbnew,9.0.7*%
%TF.CreationDate,2026-04-25T17:50:44+02:00*%
%TF.ProjectId,under_pressure,756e6465-725f-4707-9265-73737572652e,rev?*%
%TF.SameCoordinates,Original*%
%TF.FileFunction,Profile,NP*%
%FSLAX46Y46*%
G04 Gerber Fmt 4.6, Leading zero omitted, Abs format (unit mm)*
G04 Created by KiCad (PCBNEW 9.0.7) date 2026-04-25 17:50:44*
%MOMM*%
%LPD*%
G01*
G04 APERTURE LIST*
G04 Aperture macros list*
%AMRoundRect*
0 Rectangle with rounded corners*
0 $1 Rounding radius*
0 $2 $3 $4 $5 $6 $7 $8 $9 X,Y pos of 4 corners*
0 Add a 4 corners polygon primitive as box body*
4,1,4,$2,$3,$4,$5,$6,$7,$8,$9,$2,$3,0*
0 Add four circle primitives for the rounded corners*
1,1,$1+$1,$2,$3*
1,1,$1+$1,$4,$5*
1,1,$1+$1,$6,$7*
1,1,$1+$1,$8,$9*
0 Add four rect primitives between the rounded corners*
20,1,$1+$1,$2,$3,$4,$5,0*
20,1,$1+$1,$4,$5,$6,$7,0*
20,1,$1+$1,$6,$7,$8,$9,0*
20,1,$1+$1,$8,$9,$2,$3,0*%
G04 Aperture macros list end*
%TA.AperFunction,Profile*%
%ADD10C,0.050000*%
%TD*%
%ADD11C,0.050000*%
%TA.AperFunction,ComponentPad*%
%ADD12RoundRect,0.250000X-0.550000X-0.550000X0.550000X-0.550000X0.550000X0.550000X-0.550000X0.550000X0*%
%TD*%
%TA.AperFunction,ComponentPad*%
%ADD13C,1.600000*%
%TD*%
%TA.AperFunction,ComponentPad*%
%ADD14R,1.800000X1.800000*%
%TD*%
%TA.AperFunction,ComponentPad*%
%ADD15C,1.800000*%
%TD*%
%TA.AperFunction,ComponentPad*%
%ADD16RoundRect,0.250000X0.550000X0.550000X-0.550000X0.550000X-0.550000X-0.550000X0.550000X-0.550000X0*%
%TD*%
%TA.AperFunction,ComponentPad*%
%ADD17RoundRect,0.250000X0.550000X-0.550000X0.550000X0.550000X-0.550000X0.550000X-0.550000X-0.550000X0*%
%TD*%
%TA.AperFunction,ComponentPad*%
%ADD18RoundRect,0.250000X-0.550000X0.550000X-0.550000X-0.550000X0.550000X-0.550000X0.550000X0.550000X0*%
%TD*%
%TA.AperFunction,ComponentPad*%
%ADD19R,3.000000X3.000000*%
%TD*%
%TA.AperFunction,ComponentPad*%
%ADD20C,3.000000*%
%TD*%
G04 APERTURE END LIST*
D10*
X117000000Y-84500000D02*
X117000000Y-122000000D01*
X187500000Y-81000000D02*
X120500000Y-81000000D01*
D11*
X120500000Y-125500000D02*
X120338488Y-125499987D01*
X120259629Y-125499955D01*
X120182022Y-125499893D01*
X120105657Y-125499791D01*
X120030523Y-125499640D01*
X119956611Y-125499428D01*
X119920110Y-125499296D01*
X119883911Y-125499146D01*
X119848012Y-125498975D01*
X119812413Y-125498783D01*
X119777111Y-125498569D01*
X119742105Y-125498331D01*
X119707396Y-125498068D01*
X119672980Y-125497779D01*
X119638857Y-125497462D01*
X119605026Y-125497116D01*
X119571486Y-125496740D01*
X119538234Y-125496333D01*
X119505270Y-125495894D01*
X119472593Y-125495420D01*
X119440202Y-125494912D01*
X119408094Y-125494367D01*
X119376270Y-125493785D01*
X119344727Y-125493164D01*
X119313464Y-125492503D01*
X119282480Y-125491801D01*
X119251775Y-125491056D01*
X119221346Y-125490267D01*
X119191192Y-125489433D01*
X119161313Y-125488553D01*
X119131706Y-125487625D01*
X119102371Y-125486649D01*
X119073307Y-125485622D01*
X119044511Y-125484544D01*
X119015983Y-125483414D01*
X118987722Y-125482229D01*
X118959727Y-125480990D01*
X118931995Y-125479694D01*
X118904526Y-125478341D01*
X118877319Y-125476929D01*
X118850373Y-125475457D01*
X118823685Y-125473923D01*
X118797255Y-125472327D01*
X118784137Y-125471505D01*
X118771082Y-125470667D01*
X118758091Y-125469813D01*
X118745164Y-125468942D01*
X118732301Y-125468055D01*
X118719500Y-125467150D01*
X118706763Y-125466229D01*
X118694089Y-125465291D01*
X118681478Y-125464336D01*
X118668930Y-125463364D01*
X118656444Y-125462374D01*
X118644021Y-125461366D01*
X118631660Y-125460340D01*
X118619361Y-125459296D01*
X118607124Y-125458235D01*
X118594949Y-125457155D01*
X118582836Y-125456056D01*
X118570784Y-125454939D01*
X118558793Y-125453803D01*
X118546863Y-125452648D01*
X118534995Y-125451474D01*
X118523187Y-125450281D01*
X118511441Y-125449068D01*
X118499754Y-125447836D01*
X118488128Y-125446584D01*
X118476563Y-125445313D01*
X118465057Y-125444021D01*
X118453611Y-125442709D01*
X118442225Y-125441376D01*
X118430899Y-125440024D01*
X118419632Y-125438650D01*
X118408424Y-125437256D01*
X118397276Y-125435841D01*
X118386187Y-125434404D01*
X118375156Y-125432947D01*
X118364184Y-125431468D01*
X118353271Y-125429967D01*
X118342416Y-125428445D01*
X118331619Y-125426900D01*
X118320880Y-125425334D01*
X118310199Y-125423745D01*
X118299576Y-125422134D01*
X118289010Y-125420501D01*
X118278502Y-125418845D01*
X118268051Y-125417166D01*
X118257657Y-125415464D01*
X118247320Y-125413739D01*
X118237040Y-125411990D01*
X118226817Y-125410218D01*
X118216650Y-125408422D01*
X118206539Y-125406603D01*
X118196485Y-125404760D01*
X118186487Y-125402892D01*
X118176544Y-125401001D01*
X118166657Y-125399085D01*
X118156826Y-125397144D01*
X118147050Y-125395179D01*
X118137329Y-125393188D01*
X118127663Y-125391173D01*
X118118053Y-125389133D01*
X118108497Y-125387067D01*
X118098995Y-125384976D01*
X118089549Y-125382859D01*
X118080156Y-125380716D01*
X118070817Y-125378547D01*
X118061533Y-125376352D01*
X118052302Y-125374131D01*
X118043125Y-125371884D01*
X118034002Y-125369609D01*
X118024932Y-125367308D01*
X118015915Y-125364981D01*
X118006951Y-125362626D01*
X117998040Y-125360243D01*
X117989182Y-125357834D01*
X117980376Y-125355397D01*
X117971622Y-125352932D01*
X117962921Y-125350439D01*
X117954273Y-125347919D01*
X117945676Y-125345370D01*
X117937130Y-125342793D01*
X117928637Y-125340187D01*
X117920195Y-125337553D01*
X117911804Y-125334890D01*
X117903464Y-125332198D01*
X117895176Y-125329477D01*
X117886938Y-125326727D01*
X117878751Y-125323947D01*
X117870614Y-125321138D01*
X117862528Y-125318299D01*
X117854492Y-125315430D01*
X117846506Y-125312531D01*
X117838570Y-125309602D01*
X117830684Y-125306642D01*
X117822848Y-125303652D01*
X117815060Y-125300631D01*
X117807323Y-125297580D01*
X117799634Y-125294497D01*
X117791994Y-125291384D01*
X117784403Y-125288239D01*
X117776861Y-125285062D01*
X117769367Y-125281854D01*
X117761922Y-125278615D01*
X117754524Y-125275343D01*
X117747175Y-125272039D01*
X117739874Y-125268703D01*
X117732620Y-125265335D01*
X117725414Y-125261934D01*
X117718256Y-125258501D01*
X117711144Y-125255034D01*
X117704080Y-125251535D01*
X117697063Y-125248002D01*
X117690092Y-125244436D01*
X117683168Y-125240837D01*
X117676291Y-125237204D01*
X117669459Y-125233537D01*
X117662674Y-125229836D01*
X117655935Y-125226101D01*
X117649242Y-125222332D01*
X117642595Y-125218528D01*
X117635993Y-125214690D01*
X117629436Y-125210817D01*
X117622925Y-125206909D01*
X117616459Y-125202966D01*
X117610037Y-125198988D01*
X117603660Y-125194975D01*
X117597328Y-125190926D01*
X117591041Y-125186841D01*
X117584797Y-125182721D01*
X117578598Y-125178564D01*
X117572443Y-125174372D01*
X117566332Y-125170143D01*
X117560264Y-125165877D01*
X117554239Y-125161576D01*
X117548259Y-125157237D01*
X117542321Y-125152861D01*
X117536426Y-125148448D01*
X117530574Y-125143998D01*
X117524765Y-125139511D01*
X117518998Y-125134986D01*
X117513274Y-125130424D01*
X117507592Y-125125823D01*
X117501952Y-125121185D01*
X117496354Y-125116508D01*
X117490798Y-125111793D01*
X117485284Y-125107039D01*
X117479811Y-125102247D01*
X117474379Y-125097416D01*
X117468988Y-125092546D01*
X117463639Y-125087637D01*
X117458330Y-125082689D01*
X117453062Y-125077701D01*
X117447834Y-125072674D01*
X117442647Y-125067607D01*
X117437500Y-125062500D01*
X117432393Y-125057353D01*
X117427326Y-125052166D01*
X117422299Y-125046938D01*
X117417311Y-125041670D01*
X117412363Y-125036361D01*
X117407454Y-125031012D01*
X117402584Y-125025621D01*
X117397753Y-125020189D01*
X117392961Y-125014716D01*
X117388207Y-125009202D01*
X117383492Y-125003646D01*
X117378815Y-124998048D01*
X117374177Y-124992408D01*
X117369576Y-124986726D01*
X117365014Y-124981002D01*
X117360489Y-124975235D01*
X117356002Y-124969426D01*
X117351552Y-124963574D01*
X117347139Y-124957679D01*
X117342763Y-124951741D01*
X117338424Y-124945761D01*
X117334123Y-124939736D01*
X117329857Y-124933668D01*
X117325628Y-124927557D01*
X117321436Y-124921402D01*
X117317279Y-124915203D01*
X117313159Y-124908959D01*
X117309074Y-124902672D01*
X117305025Y-124896340D01*
X117301012Y-124889963D01*
X117297034Y-124883541D01*
X117293091Y-124877075D01*
X117289183Y-124870564D01*
X117285310Y-124864007D01*
X117281472Y-124857405D01*
X117277668Y-124850758D01*
X117273899Y-124844065D01*
X117270164Y-124837326D01*
X117266463Y-124830541D01*
X117262796Y-124823709D01*
X117259163Y-124816832D01*
X117255564Y-124809908D01*
X117251998Y-124802937D01*
X117248465Y-124795920D01*
X117244966Y-124788856D01*
X117241499Y-124781744D01*
X117238066Y-124774586D01*
X117234665Y-124767380D01*
X117231297Y-124760126D01*
X117227961Y-124752825D01*
X117224657Y-124745476D01*
X117221385Y-124738078D01*
X117218146Y-124730633D01*
X117214938Y-124723139D01*
X117211761Y-124715597D01*
X117208616Y-124708006D01*
X117205503Y-124700366D01*
X117202420Y-124692677D01*
X117199369Y-124684940D01*
X117196348Y-124677152D01*
X117193358Y-124669316D01*
X117190398Y-124661430D01*
X117187469Y-124653494D01*
X117184570Y-124645508D01*
X117181701Y-124637472D01*
X117178862Y-124629386D01*
X117176053Y-124621249D01*
X117173273Y-124613062D01*
X117170523Y-124604824D01*
X117167802Y-124596536D01*
X117165110Y-124588196D01*
X117162447Y-124579805D01*
X117159813Y-124571363D01*
X117157207Y-124562870D01*
X117154630Y-124554324D01*
X117152081Y-124545727D01*
X117149561Y-124537079D01*
X117147068Y-124528378D01*
X117144603Y-124519624D01*
X117142166Y-124510818D01*
X117139757Y-124501960D01*
X117137374Y-124493049D01*
X117135019Y-124484085D01*
X117132692Y-124475068D01*
X117130391Y-124465998D01*
X117128116Y-124456875D01*
X117125869Y-124447698D01*
X117123648Y-124438467D01*
X117121453Y-124429183D01*
X117119284Y-124419844D01*
X117117141Y-124410451D01*
X117115024Y-124401005D01*
X117112933Y-124391503D01*
X117110867Y-124381947D01*
X117108827Y-124372337D01*
X117106812Y-124362671D01*
X117104821Y-124352950D01*
X117102856Y-124343174D01*
X117100915Y-124333343D01*
X117098999Y-124323456D01*
X117097108Y-124313513D01*
X117095240Y-124303515D01*
X117093397Y-124293461D01*
X117091578Y-124283350D01*
X117089782Y-124273183D01*
X117088010Y-124262960D01*
X117086261Y-124252680D01*
X117084536Y-124242343D01*
X117082834Y-124231949D01*
X117081155Y-124221498D01*
X117079499Y-124210990D01*
X117077866Y-124200424D01*
X117076255Y-124189801D01*
X117074666Y-124179120D01*
X117073100Y-124168381D01*
X117071555Y-124157584D01*
X117070033Y-124146729D01*
X117068532Y-124135816D01*
X117067053Y-124124844D01*
X117065596Y-124113813D01*
X117064159Y-124102724D01*
X117062744Y-124091576D01*
X117061350Y-124080368D01*
X117059976Y-124069101D01*
X117058624Y-124057775D01*
X117057291Y-124046389D01*
X117055979Y-124034943D01*
X117054688Y-124023438D01*
X117053416Y-124011872D01*
X117052164Y-124000246D01*
X117050932Y-123988559D01*
X117049719Y-123976813D01*
X117048526Y-123965005D01*
X117047352Y-123953137D01*
X117046197Y-123941207D01*
X117045061Y-123929216D01*
X117043944Y-123917164D01*
X117042845Y-123905051D01*
X117041765Y-123892876D01*
X117040704Y-123880639D01*
X117039660Y-123868340D01*
X117038634Y-123855979D01*
X117037626Y-123843556D01*
X117036636Y-123831070D01*
X117035664Y-123818522D01*
X117034709Y-123805911D01*
X117033771Y-123793237D01*
X117032850Y-123780500D01*
X117031945Y-123767699D01*
X117031058Y-123754836D01*
X117030187Y-123741909D01*
X117029333Y-123728918D01*
X117028495Y-123715863D01*
X117027673Y-123702745D01*
X117026077Y-123676315D01*
X117024543Y-123649627D01*
X117023071Y-123622681D01*
X117021659Y-123595474D01*
X117020306Y-123568005D01*
X117019010Y-123540273D01*
X117017771Y-123512278D01*
X117016586Y-123484017D01*
X117015456Y-123455489D01*
X117014378Y-123426693D01*
X117013351Y-123397629D01*
X117012375Y-123368294D01*
X117011447Y-123338687D01*
X117010567Y-123308808D01*
X117009733Y-123278654D01*
X117008944Y-123248225D01*
X117008199Y-123217520D01*
X117007497Y-123186536D01*
X117006836Y-123155273D01*
X117006215Y-123123730D01*
X117005633Y-123091906D01*
X117005088Y-123059798D01*
X117004580Y-123027407D01*
X117004106Y-122994730D01*
X117003667Y-122961766D01*
X117003260Y-122928514D01*
X117002884Y-122894974D01*
X117002538Y-122861143D01*
X117002221Y-122827020D01*
X117001932Y-122792604D01*
X117001669Y-122757895D01*
X117001431Y-122722889D01*
X117001217Y-122687587D01*
X117001025Y-122651988D01*
X117000854Y-122616089D01*
X117000704Y-122579890D01*
X117000572Y-122543389D01*
X117000360Y-122469477D01*
X117000209Y-122394343D01*
X117000107Y-122317978D01*
X117000045Y-122240371D01*
X117000013Y-122161512D01*
X117000000Y-122000000D01*
X191000000Y-122000000D02*
X190999987Y-122161512D01*
X190999955Y-122240371D01*
X190999893Y-122317978D01*
X190999791Y-122394343D01*
X190999640Y-122469477D01*
X190999428Y-122543389D01*
X190999296Y-122579890D01*
X190999146Y-122616089D01*
X190998975Y-122651988D01*
X190998783Y-122687587D01*
X190998569Y-122722889D01*
X190998331Y-122757895D01*
X190998068Y-122792604D01*
X190997779Y-122827020D01*
X190997462Y-122861143D01*
X190997116Y-122894974D01*
X190996740Y-122928514D01*
X190996333Y-122961766D01*
X190995894Y-122994730D01*
X190995420Y-123027407D01*
X190994912Y-123059798D01*
X190994367Y-123091906D01*
X190993785Y-123123730D01*
X190993164Y-123155273D01*
X190992503Y-123186536D01*
X190991801Y-123217520D01*
X190991056Y-123248225D01*
X190990267Y-123278654D01*
X190989433Y-123308808D01*
X190988553Y-123338687D01*
X190987625Y-123368294D01*
X190986649Y-123397629D01*
X190985622Y-123426693D01*
X190984544Y-123455489D01*
X190983414Y-123484017D01*
X190982229Y-123512278D01*
X190980990Y-123540273D01*
X190979694Y-123568005D01*
X190978341Y-123595474D01*
X190976929Y-123622681D01*
X190975457Y-123649627D01*
X190973923Y-123676315D01*
X190972327Y-123702745D01*
X190971505Y-123715863D01*
X190970667Y-123728918D01*
X190969813Y-123741909D01*
X190968942Y-123754836D01*
X190968055Y-123767699D01*
X190967150Y-123780500D01*
X190966229Y-123793237D01*
X190965291Y-123805911D01*
X190964336Y-123818522D01*
X190963364Y-123831070D01*
X190962374Y-123843556D01*
X190961366Y-123855979D01*
X190960340Y-123868340D01*
X190959296Y-123880639D01*
X190958235Y-123892876D01*
X190957155Y-123905051D01*
X190956056Y-123917164D01*
X190954939Y-123929216D01*
X190953803Y-123941207D01*
X190952648Y-123953137D01*
X190951474Y-123965005D01*
X190950281Y-123976813D01*
X190949068Y-123988559D01*
X190947836Y-124000246D01*
X190946584Y-124011872D01*
X190945313Y-124023438D01*
X190944021Y-124034943D01*
X190942709Y-124046389D01*
X190941376Y-124057775D01*
X190940024Y-124069101D01*
X190938650Y-124080368D01*
X190937256Y-124091576D01*
X190935841Y-124102724D01*
X190934404Y-124113813D01*
X190932947Y-124124844D01*
X190931468Y-124135816D01*
X190929967Y-124146729D01*
X190928445Y-124157584D01*
X190926900Y-124168381D01*
X190925334Y-124179120D01*
X190923745Y-124189801D01*
X190922134Y-124200424D01*
X190920501Y-124210990D01*
X190918845Y-124221498D01*
X190917166Y-124231949D01*
X190915464Y-124242343D01*
X190913739Y-124252680D01*
X190911990Y-124262960D01*
X190910218Y-124273183D01*
X190908422Y-124283350D01*
X190906603Y-124293461D01*
X190904760Y-124303515D01*
X190902892Y-124313513D01*
X190901001Y-124323456D01*
X190899085Y-124333343D01*
X190897144Y-124343174D01*
X190895179Y-124352950D01*
X190893188Y-124362671D01*
X190891173Y-124372337D01*
X190889133Y-124381947D01*
X190887067Y-124391503D01*
X190884976Y-124401005D01*
X190882859Y-124410451D01*
X190880716Y-124419844D01*
X190878547Y-124429183D01*
X190876352Y-124438467D01*
X190874131Y-124447698D01*
X190871884Y-124456875D01*
X190869609Y-124465998D01*
X190867308Y-124475068D01*
X190864981Y-124484085D01*
X190862626Y-124493049D01*
X190860243Y-124501960D01*
X190857834Y-124510818D01*
X190855397Y-124519624D01*
X190852932Y-124528378D01*
X190850439Y-124537079D01*
X190847919Y-124545727D01*
X190845370Y-124554324D01*
X190842793Y-124562870D01*
X190840187Y-124571363D01*
X190837553Y-124579805D01*
X190834890Y-124588196D01*
X190832198Y-124596536D01*
X190829477Y-124604824D01*
X190826727Y-124613062D01*
X190823947Y-124621249D01*
X190821138Y-124629386D01*
X190818299Y-124637472D01*
X190815430Y-124645508D01*
X190812531Y-124653494D01*
X190809602Y-124661430D01*
X190806642Y-124669316D01*
X190803652Y-124677152D01*
X190800631Y-124684940D01*
X190797580Y-124692677D01*
X190794497Y-124700366D01*
X190791384Y-124708006D01*
X190788239Y-124715597D01*
X190785062Y-124723139D01*
X190781854Y-124730633D01*
X190778615Y-124738078D01*
X190775343Y-124745476D01*
X190772039Y-124752825D01*
X190768703Y-124760126D01*
X190765335Y-124767380D01*
X190761934Y-124774586D01*
X190758501Y-124781744D01*
X190755034Y-124788856D01*
X190751535Y-124795920D01*
X190748002Y-124802937D01*
X190744436Y-124809908D01*
X190740837Y-124816832D01*
X190737204Y-124823709D01*
X190733537Y-124830541D01*
X190729836Y-124837326D01*
X190726101Y-124844065D01*
X190722332Y-124850758D01*
X190718528Y-124857405D01*
X190714690Y-124864007D01*
X190710817Y-124870564D01*
X190706909Y-124877075D01*
X190702966Y-124883541D01*
X190698988Y-124889963D01*
X190694975Y-124896340D01*
X190690926Y-124902672D01*
X190686841Y-124908959D01*
X190682721Y-124915203D01*
X190678564Y-124921402D01*
X190674372Y-124927557D01*
X190670143Y-124933668D01*
X190665877Y-124939736D01*
X190661576Y-124945761D01*
X190657237Y-124951741D01*
X190652861Y-124957679D01*
X190648448Y-124963574D01*
X190643998Y-124969426D01*
X190639511Y-124975235D01*
X190634986Y-124981002D01*
X190630424Y-124986726D01*
X190625823Y-124992408D01*
X190621185Y-124998048D01*
X190616508Y-125003646D01*
X190611793Y-125009202D01*
X190607039Y-125014716D01*
X190602247Y-125020189D01*
X190597416Y-125025621D01*
X190592546Y-125031012D01*
X190587637Y-125036361D01*
X190582689Y-125041670D01*
X190577701Y-125046938D01*
X190572674Y-125052166D01*
X190567607Y-125057353D01*
X190562500Y-125062500D01*
X190557353Y-125067607D01*
X190552166Y-125072674D01*
X190546938Y-125077701D01*
X190541670Y-125082689D01*
X190536361Y-125087637D01*
X190531012Y-125092546D01*
X190525621Y-125097416D01*
X190520189Y-125102247D01*
X190514716Y-125107039D01*
X190509202Y-125111793D01*
X190503646Y-125116508D01*
X190498048Y-125121185D01*
X190492408Y-125125823D01*
X190486726Y-125130424D01*
X190481002Y-125134986D01*
X190475235Y-125139511D01*
X190469426Y-125143998D01*
X190463574Y-125148448D01*
X190457679Y-125152861D01*
X190451741Y-125157237D01*
X190445761Y-125161576D01*
X190439736Y-125165877D01*
X190433668Y-125170143D01*
X190427557Y-125174372D01*
X190421402Y-125178564D01*
X190415203Y-125182721D01*
X190408959Y-125186841D01*
X190402672Y-125190926D01*
X190396340Y-125194975D01*
X190389963Y-125198988D01*
X190383541Y-125202966D01*
X190377075Y-125206909D01*
X190370564Y-125210817D01*
X190364007Y-125214690D01*
X190357405Y-125218528D01*
X190350758Y-125222332D01*
X190344065Y-125226101D01*
X190337326Y-125229836D01*
X190330541Y-125233537D01*
X190323709Y-125237204D01*
X190316832Y-125240837D01*
X190309908Y-125244436D01*
X190302937Y-125248002D01*
X190295920Y-125251535D01*
X190288856Y-125255034D01*
X190281744Y-125258501D01*
X190274586Y-125261934D01*
X190267380Y-125265335D01*
X190260126Y-125268703D01*
X190252825Y-125272039D01*
X190245476Y-125275343D01*
X190238078Y-125278615D01*
X190230633Y-125281854D01*
X190223139Y-125285062D01*
X190215597Y-125288239D01*
X190208006Y-125291384D01*
X190200366Y-125294497D01*
X190192677Y-125297580D01*
X190184940Y-125300631D01*
X190177152Y-125303652D01*
X190169316Y-125306642D01*
X190161430Y-125309602D01*
X190153494Y-125312531D01*
X190145508Y-125315430D01*
X190137472Y-125318299D01*
X190129386Y-125321138D01*
X190121249Y-125323947D01*
X190113062Y-125326727D01*
X190104824Y-125329477D01*
X190096536Y-125332198D01*
X190088196Y-125334890D01*
X190079805Y-125337553D01*
X190071363Y-125340187D01*
X190062870Y-125342793D01*
X190054324Y-125345370D01*
X190045727Y-125347919D01*
X190037079Y-125350439D01*
X190028378Y-125352932D01*
X190019624Y-125355397D01*
X190010818Y-125357834D01*
X190001960Y-125360243D01*
X189993049Y-125362626D01*
X189984085Y-125364981D01*
X189975068Y-125367308D01*
X189965998Y-125369609D01*
X189956875Y-125371884D01*
X189947698Y-125374131D01*
X189938467Y-125376352D01*
X189929183Y-125378547D01*
X189919844Y-125380716D01*
X189910451Y-125382859D01*
X189901005Y-125384976D01*
X189891503Y-125387067D01*
X189881947Y-125389133D01*
X189872337Y-125391173D01*
X189862671Y-125393188D01*
X189852950Y-125395179D01*
X189843174Y-125397144D01*
X189833343Y-125399085D01*
X189823456Y-125401001D01*
X189813513Y-125402892D01*
X189803515Y-125404760D01*
X189793461Y-125406603D01*
X189783350Y-125408422D01*
X189773183Y-125410218D01*
X189762960Y-125411990D01*
X189752680Y-125413739D01*
X189742343Y-125415464D01*
X189731949Y-125417166D01*
X189721498Y-125418845D01*
X189710990Y-125420501D01*
X189700424Y-125422134D01*
X189689801Y-125423745D01*
X189679120Y-125425334D01*
X189668381Y-125426900D01*
X189657584Y-125428445D01*
X189646729Y-125429967D01*
X189635816Y-125431468D01*
X189624844Y-125432947D01*
X189613813Y-125434404D01*
X189602724Y-125435841D01*
X189591576Y-125437256D01*
X189580368Y-125438650D01*
X189569101Y-125440024D01*
X189557775Y-125441376D01*
X189546389Y-125442709D01*
X189534943Y-125444021D01*
X189523438Y-125445313D01*
X189511872Y-125446584D01*
X189500246Y-125447836D01*
X189488559Y-125449068D01*
X189476813Y-125450281D01*
X189465005Y-125451474D01*
X189453137Y-125452648D01*
X189441207Y-125453803D01*
X189429216Y-125454939D01*
X189417164Y-125456056D01*
X189405051Y-125457155D01*
X189392876Y-125458235D01*
X189380639Y-125459296D01*
X189368340Y-125460340D01*
X189355979Y-125461366D01*
X189343556Y-125462374D01*
X189331070Y-125463364D01*
X189318522Y-125464336D01*
X189305911Y-125465291D01*
X189293237Y-125466229D01*
X189280500Y-125467150D01*
X189267699Y-125468055D01*
X189254836Y-125468942D01*
X189241909Y-125469813D01*
X189228918Y-125470667D01*
X189215863Y-125471505D01*
X189202745Y-125472327D01*
X189176315Y-125473923D01*
X189149627Y-125475457D01*
X189122681Y-125476929D01*
X189095474Y-125478341D01*
X189068005Y-125479694D01*
X189040273Y-125480990D01*
X189012278Y-125482229D01*
X188984017Y-125483414D01*
X188955489Y-125484544D01*
X188926693Y-125485622D01*
X188897629Y-125486649D01*
X188868294Y-125487625D01*
X188838687Y-125488553D01*
X188808808Y-125489433D01*
X188778654Y-125490267D01*
X188748225Y-125491056D01*
X188717520Y-125491801D01*
X188686536Y-125492503D01*
X188655273Y-125493164D01*
X188623730Y-125493785D01*
X188591906Y-125494367D01*
X188559798Y-125494912D01*
X188527407Y-125495420D01*
X188494730Y-125495894D01*
X188461766Y-125496333D01*
X188428514Y-125496740D01*
X188394974Y-125497116D01*
X188361143Y-125497462D01*
X188327020Y-125497779D01*
X188292604Y-125498068D01*
X188257895Y-125498331D01*
X188222889Y-125498569D01*
X188187587Y-125498783D01*
X188151988Y-125498975D01*
X188116089Y-125499146D01*
X188079890Y-125499296D01*
X188043389Y-125499428D01*
X187969477Y-125499640D01*
X187894343Y-125499791D01*
X187817978Y-125499893D01*
X187740371Y-125499955D01*
X187661512Y-125499987D01*
X187500000Y-125500000D01*
X117000000Y-84500000D02*
X117000013Y-84338488D01*
X117000045Y-84259629D01*
X117000107Y-84182022D01*
X117000209Y-84105657D01*
X117000360Y-84030523D01*
X117000572Y-83956611D01*
X117000704Y-83920110D01*
X117000854Y-83883911D01*
X117001025Y-83848012D01*
X117001217Y-83812413D01*
X117001431Y-83777111D01*
X117001669Y-83742105D01*
X117001932Y-83707396D01*
X117002221Y-83672980D01*
X117002538Y-83638857D01*
X117002884Y-83605026D01*
X117003260Y-83571486D01*
X117003667Y-83538234D01*
X117004106Y-83505270D01*
X117004580Y-83472593D01*
X117005088Y-83440202D01*
X117005633Y-83408094D01*
X117006215Y-83376270D01*
X117006836Y-83344727D01*
X117007497Y-83313464D01*
X117008199Y-83282480D01*
X117008944Y-83251775D01*
X117009733Y-83221346D01*
X117010567Y-83191192D01*
X117011447Y-83161313D01*
X117012375Y-83131706D01*
X117013351Y-83102371D01*
X117014378Y-83073307D01*
X117015456Y-83044511D01*
X117016586Y-83015983D01*
X117017771Y-82987722D01*
X117019010Y-82959727D01*
X117020306Y-82931995D01*
X117021659Y-82904526D01*
X117023071Y-82877319D01*
X117024543Y-82850373D01*
X117026077Y-82823685D01*
X117027673Y-82797255D01*
X117028495Y-82784137D01*
X117029333Y-82771082D01*
X117030187Y-82758091D01*
X117031058Y-82745164D01*
X117031945Y-82732301D01*
X117032850Y-82719500D01*
X117033771Y-82706763D01*
X117034709Y-82694089D01*
X117035664Y-82681478D01*
X117036636Y-82668930D01*
X117037626Y-82656444D01*
X117038634Y-82644021D01*
X117039660Y-82631660D01*
X117040704Y-82619361D01*
X117041765Y-82607124D01*
X117042845Y-82594949D01*
X117043944Y-82582836D01*
X117045061Y-82570784D01*
X117046197Y-82558793D01*
X117047352Y-82546863D01*
X117048526Y-82534995D01*
X117049719Y-82523187D01*
X117050932Y-82511441D01*
X117052164Y-82499754D01*
X117053416Y-82488128D01*
X117054688Y-82476563D01*
X117055979Y-82465057D01*
X117057291Y-82453611D01*
X117058624Y-82442225D01*
X117059976Y-82430899D01*
X117061350Y-82419632D01*
X117062744Y-82408424D01*
X117064159Y-82397276D01*
X117065596Y-82386187D01*
X117067053Y-82375156D01*
X117068532Y-82364184D01*
X117070033Y-82353271D01*
X117071555Y-82342416D01*
X117073100Y-82331619D01*
X117074666Y-82320880D01*
X117076255Y-82310199D01*
X117077866Y-82299576D01*
X117079499Y-82289010D01*
X117081155Y-82278502D01*
X117082834Y-82268051D01*
X117084536Y-82257657D01*
X117086261Y-82247320D01*
X117088010Y-82237040D01*
X117089782Y-82226817D01*
X117091578Y-82216650D01*
X117093397Y-82206539D01*
X117095240Y-82196485D01*
X117097108Y-82186487D01*
X117098999Y-82176544D01*
X117100915Y-82166657D01*
X117102856Y-82156826D01*
X117104821Y-82147050D01*
X117106812Y-82137329D01*
X117108827Y-82127663D01*
X117110867Y-82118053D01*
X117112933Y-82108497D01*
X117115024Y-82098995D01*
X117117141Y-82089549D01*
X117119284Y-82080156D01*
X117121453Y-82070817D01*
X117123648Y-82061533D01*
X117125869Y-82052302D01*
X117128116Y-82043125D01*
X117130391Y-82034002D01*
X117132692Y-82024932D01*
X117135019Y-82015915D01*
X117137374Y-82006951D01*
X117139757Y-81998040D01*
X117142166Y-81989182D01*
X117144603Y-81980376D01*
X117147068Y-81971622D01*
X117149561Y-81962921D01*
X117152081Y-81954273D01*
X117154630Y-81945676D01*
X117157207Y-81937130D01*
X117159813Y-81928637D01*
X117162447Y-81920195D01*
X117165110Y-81911804D01*
X117167802Y-81903464D01*
X117170523Y-81895176D01*
X117173273Y-81886938D01*
X117176053Y-81878751D01*
X117178862Y-81870614D01*
X117181701Y-81862528D01*
X117184570Y-81854492D01*
X117187469Y-81846506D01*
X117190398Y-81838570D01*
X117193358Y-81830684D01*
X117196348Y-81822848D01*
X117199369Y-81815060D01*
X117202420Y-81807323D01*
X117205503Y-81799634D01*
X117208616Y-81791994D01*
X117211761Y-81784403D01*
X117214938Y-81776861D01*
X117218146Y-81769367D01*
X117221385Y-81761922D01*
X117224657Y-81754524D01*
X117227961Y-81747175D01*
X117231297Y-81739874D01*
X117234665Y-81732620D01*
X117238066Y-81725414D01*
X117241499Y-81718256D01*
X117244966Y-81711144D01*
X117248465Y-81704080D01*
X117251998Y-81697063D01*
X117255564Y-81690092D01*
X117259163Y-81683168D01*
X117262796Y-81676291D01*
X117266463Y-81669459D01*
X117270164Y-81662674D01*
X117273899Y-81655935D01*
X117277668Y-81649242D01*
X117281472Y-81642595D01*
X117285310Y-81635993D01*
X117289183Y-81629436D01*
X117293091Y-81622925D01*
X117297034Y-81616459D01*
X117301012Y-81610037D01*
X117305025Y-81603660D01*
X117309074Y-81597328D01*
X117313159Y-81591041D01*
X117317279Y-81584797D01*
X117321436Y-81578598D01*
X117325628Y-81572443D01*
X117329857Y-81566332D01*
X117334123Y-81560264D01*
X117338424Y-81554239D01*
X117342763Y-81548259D01*
X117347139Y-81542321D01*
X117351552Y-81536426D01*
X117356002Y-81530574D01*
X117360489Y-81524765D01*
X117365014Y-81518998D01*
X117369576Y-81513274D01*
X117374177Y-81507592D01*
X117378815Y-81501952D01*
X117383492Y-81496354D01*
X117388207Y-81490798D01*
X117392961Y-81485284D01*
X117397753Y-81479811D01*
X117402584Y-81474379D01*
X117407454Y-81468988D01*
X117412363Y-81463639D01*
X117417311Y-81458330D01*
X117422299Y-81453062D01*
X117427326Y-81447834D01*
X117432393Y-81442647D01*
X117437500Y-81437500D01*
X117442647Y-81432393D01*
X117447834Y-81427326D01*
X117453062Y-81422299D01*
X117458330Y-81417311D01*
X117463639Y-81412363D01*
X117468988Y-81407454D01*
X117474379Y-81402584D01*
X117479811Y-81397753D01*
X117485284Y-81392961D01*
X117490798Y-81388207D01*
X117496354Y-81383492D01*
X117501952Y-81378815D01*
X117507592Y-81374177D01*
X117513274Y-81369576D01*
X117518998Y-81365014D01*
X117524765Y-81360489D01*
X117530574Y-81356002D01*
X117536426Y-81351552D01*
X117542321Y-81347139D01*
X117548259Y-81342763D01*
X117554239Y-81338424D01*
X117560264Y-81334123D01*
X117566332Y-81329857D01*
X117572443Y-81325628D01*
X117578598Y-81321436D01*
X117584797Y-81317279D01*
X117591041Y-81313159D01*
X117597328Y-81309074D01*
X117603660Y-81305025D01*
X117610037Y-81301012D01*
X117616459Y-81297034D01*
X117622925Y-81293091D01*
X117629436Y-81289183D01*
X117635993Y-81285310D01*
X117642595Y-81281472D01*
X117649242Y-81277668D01*
X117655935Y-81273899D01*
X117662674Y-81270164D01*
X117669459Y-81266463D01*
X117676291Y-81262796D01*
X117683168Y-81259163D01*
X117690092Y-81255564D01*
X117697063Y-81251998D01*
X117704080Y-81248465D01*
X117711144Y-81244966D01*
X117718256Y-81241499D01*
X117725414Y-81238066D01*
X117732620Y-81234665D01*
X117739874Y-81231297D01*
X117747175Y-81227961D01*
X117754524Y-81224657D01*
X117761922Y-81221385D01*
X117769367Y-81218146D01*
X117776861Y-81214938D01*
X117784403Y-81211761D01*
X117791994Y-81208616D01*
X117799634Y-81205503D01*
X117807323Y-81202420D01*
X117815060Y-81199369D01*
X117822848Y-81196348D01*
X117830684Y-81193358D01*
X117838570Y-81190398D01*
X117846506Y-81187469D01*
X117854492Y-81184570D01*
X117862528Y-81181701D01*
X117870614Y-81178862D01*
X117878751Y-81176053D01*
X117886938Y-81173273D01*
X117895176Y-81170523D01*
X117903464Y-81167802D01*
X117911804Y-81165110D01*
X117920195Y-81162447D01*
X117928637Y-81159813D01*
X117937130Y-81157207D01*
X117945676Y-81154630D01*
X117954273Y-81152081D01*
X117962921Y-81149561D01*
X117971622Y-81147068D01*
X117980376Y-81144603D01*
X117989182Y-81142166D01*
X117998040Y-81139757D01*
X118006951Y-81137374D01*
X118015915Y-81135019D01*
X118024932Y-81132692D01*
X118034002Y-81130391D01*
X118043125Y-81128116D01*
X118052302Y-81125869D01*
X118061533Y-81123648D01*
X118070817Y-81121453D01*
X118080156Y-81119284D01*
X118089549Y-81117141D01*
X118098995Y-81115024D01*
X118108497Y-81112933D01*
X118118053Y-81110867D01*
X118127663Y-81108827D01*
X118137329Y-81106812D01*
X118147050Y-81104821D01*
X118156826Y-81102856D01*
X118166657Y-81100915D01*
X118176544Y-81098999D01*
X118186487Y-81097108D01*
X118196485Y-81095240D01*
X118206539Y-81093397D01*
X118216650Y-81091578D01*
X118226817Y-81089782D01*
X118237040Y-81088010D01*
X118247320Y-81086261D01*
X118257657Y-81084536D01*
X118268051Y-81082834D01*
X118278502Y-81081155D01*
X118289010Y-81079499D01*
X118299576Y-81077866D01*
X118310199Y-81076255D01*
X118320880Y-81074666D01*
X118331619Y-81073100D01*
X118342416Y-81071555D01*
X118353271Y-81070033D01*
X118364184Y-81068532D01*
X118375156Y-81067053D01*
X118386187Y-81065596D01*
X118397276Y-81064159D01*
X118408424Y-81062744D01*
X118419632Y-81061350D01*
X118430899Y-81059976D01*
X118442225Y-81058624D01*
X118453611Y-81057291D01*
X118465057Y-81055979D01*
X118476563Y-81054688D01*
X118488128Y-81053416D01*
X118499754Y-81052164D01*
X118511441Y-81050932D01*
X118523187Y-81049719D01*
X118534995Y-81048526D01*
X118546863Y-81047352D01*
X118558793Y-81046197D01*
X118570784Y-81045061D01*
X118582836Y-81043944D01*
X118594949Y-81042845D01*
X118607124Y-81041765D01*
X118619361Y-81040704D01*
X118631660Y-81039660D01*
X118644021Y-81038634D01*
X118656444Y-81037626D01*
X118668930Y-81036636D01*
X118681478Y-81035664D01*
X118694089Y-81034709D01*
X118706763Y-81033771D01*
X118719500Y-81032850D01*
X118732301Y-81031945D01*
X118745164Y-81031058D01*
X118758091Y-81030187D01*
X118771082Y-81029333D01*
X118784137Y-81028495D01*
X118797255Y-81027673D01*
X118823685Y-81026077D01*
X118850373Y-81024543D01*
X118877319Y-81023071D01*
X118904526Y-81021659D01*
X118931995Y-81020306D01*
X118959727Y-81019010D01*
X118987722Y-81017771D01*
X119015983Y-81016586D01*
X119044511Y-81015456D01*
X119073307Y-81014378D01*
X119102371Y-81013351D01*
X119131706Y-81012375D01*
X119161313Y-81011447D01*
X119191192Y-81010567D01*
X119221346Y-81009733D01*
X119251775Y-81008944D01*
X119282480Y-81008199D01*
X119313464Y-81007497D01*
X119344727Y-81006836D01*
X119376270Y-81006215D01*
X119408094Y-81005633D01*
X119440202Y-81005088D01*
X119472593Y-81004580D01*
X119505270Y-81004106D01*
X119538234Y-81003667D01*
X119571486Y-81003260D01*
X119605026Y-81002884D01*
X119638857Y-81002538D01*
X119672980Y-81002221D01*
X119707396Y-81001932D01*
X119742105Y-81001669D01*
X119777111Y-81001431D01*
X119812413Y-81001217D01*
X119848012Y-81001025D01*
X119883911Y-81000854D01*
X119920110Y-81000704D01*
X119956611Y-81000572D01*
X120030523Y-81000360D01*
X120105657Y-81000209D01*
X120182022Y-81000107D01*
X120259629Y-81000045D01*
X120338488Y-81000013D01*
X120500000Y-81000000D01*
D10*
X120500000Y-125500000D02*
X187500000Y-125500000D01*
D11*
X187500000Y-81000000D02*
X187661512Y-81000013D01*
X187740371Y-81000045D01*
X187817978Y-81000107D01*
X187894343Y-81000209D01*
X187969477Y-81000360D01*
X188043389Y-81000572D01*
X188079890Y-81000704D01*
X188116089Y-81000854D01*
X188151988Y-81001025D01*
X188187587Y-81001217D01*
X188222889Y-81001431D01*
X188257895Y-81001669D01*
X188292604Y-81001932D01*
X188327020Y-81002221D01*
X188361143Y-81002538D01*
X188394974Y-81002884D01*
X188428514Y-81003260D01*
X188461766Y-81003667D01*
X188494730Y-81004106D01*
X188527407Y-81004580D01*
X188559798Y-81005088D01*
X188591906Y-81005633D01*
X188623730Y-81006215D01*
X188655273Y-81006836D01*
X188686536Y-81007497D01*
X188717520Y-81008199D01*
X188748225Y-81008944D01*
X188778654Y-81009733D01*
X188808808Y-81010567D01*
X188838687Y-81011447D01*
X188868294Y-81012375D01*
X188897629Y-81013351D01*
X188926693Y-81014378D01*
X188955489Y-81015456D01*
X188984017Y-81016586D01*
X189012278Y-81017771D01*
X189040273Y-81019010D01*
X189068005Y-81020306D01*
X189095474Y-81021659D01*
X189122681Y-81023071D01*
X189149627Y-81024543D01*
X189176315Y-81026077D01*
X189202745Y-81027673D01*
X189215863Y-81028495D01*
X189228918Y-81029333D01*
X189241909Y-81030187D01*
X189254836Y-81031058D01*
X189267699Y-81031945D01*
X189280500Y-81032850D01*
X189293237Y-81033771D01*
X189305911Y-81034709D01*
X189318522Y-81035664D01*
X189331070Y-81036636D01*
X189343556Y-81037626D01*
X189355979Y-81038634D01*
X189368340Y-81039660D01*
X189380639Y-81040704D01*
X189392876Y-81041765D01*
X189405051Y-81042845D01*
X189417164Y-81043944D01*
X189429216Y-81045061D01*
X189441207Y-81046197D01*
X189453137Y-81047352D01*
X189465005Y-81048526D01*
X189476813Y-81049719D01*
X189488559Y-81050932D01*
X189500246Y-81052164D01*
X189511872Y-81053416D01*
X189523438Y-81054688D01*
X189534943Y-81055979D01*
X189546389Y-81057291D01*
X189557775Y-81058624D01*
X189569101Y-81059976D01*
X189580368Y-81061350D01*
X189591576Y-81062744D01*
X189602724Y-81064159D01*
X189613813Y-81065596D01*
X189624844Y-81067053D01*
X189635816Y-81068532D01*
X189646729Y-81070033D01*
X189657584Y-81071555D01*
X189668381Y-81073100D01*
X189679120Y-81074666D01*
X189689801Y-81076255D01*
X189700424Y-81077866D01*
X189710990Y-81079499D01*
X189721498Y-81081155D01*
X189731949Y-81082834D01*
X189742343Y-81084536D01*
X189752680Y-81086261D01*
X189762960Y-81088010D01*
X189773183Y-81089782D01*
X189783350Y-81091578D01*
X189793461Y-81093397D01*
X189803515Y-81095240D01*
X189813513Y-81097108D01*
X189823456Y-81098999D01*
X189833343Y-81100915D01*
X189843174Y-81102856D01*
X189852950Y-81104821D01*
X189862671Y-81106812D01*
X189872337Y-81108827D01*
X189881947Y-81110867D01*
X189891503Y-81112933D01*
X189901005Y-81115024D01*
X189910451Y-81117141D01*
X189919844Y-81119284D01*
X189929183Y-81121453D01*
X189938467Y-81123648D01*
X189947698Y-81125869D01*
X189956875Y-81128116D01*
X189965998Y-81130391D01*
X189975068Y-81132692D01*
X189984085Y-81135019D01*
X189993049Y-81137374D01*
X190001960Y-81139757D01*
X190010818Y-81142166D01*
X190019624Y-81144603D01*
X190028378Y-81147068D01*
X190037079Y-81149561D01*
X190045727Y-81152081D01*
X190054324Y-81154630D01*
X190062870Y-81157207D01*
X190071363Y-81159813D01*
X190079805Y-81162447D01*
X190088196Y-81165110D01*
X190096536Y-81167802D01*
X190104824Y-81170523D01*
X190113062Y-81173273D01*
X190121249Y-81176053D01*
X190129386Y-81178862D01*
X190137472Y-81181701D01*
X190145508Y-81184570D01*
X190153494Y-81187469D01*
X190161430Y-81190398D01*
X190169316Y-81193358D01*
X190177152Y-81196348D01*
X190184940Y-81199369D01*
X190192677Y-81202420D01*
X190200366Y-81205503D01*
X190208006Y-81208616D01*
X190215597Y-81211761D01*
X190223139Y-81214938D01*
X190230633Y-81218146D01*
X190238078Y-81221385D01*
X190245476Y-81224657D01*
X190252825Y-81227961D01*
X190260126Y-81231297D01*
X190267380Y-81234665D01*
X190274586Y-81238066D01*
X190281744Y-81241499D01*
X190288856Y-81244966D01*
X190295920Y-81248465D01*
X190302937Y-81251998D01*
X190309908Y-81255564D01*
X190316832Y-81259163D01*
X190323709Y-81262796D01*
X190330541Y-81266463D01*
X190337326Y-81270164D01*
X190344065Y-81273899D01*
X190350758Y-81277668D01*
X190357405Y-81281472D01*
X190364007Y-81285310D01*
X190370564Y-81289183D01*
X190377075Y-81293091D01*
X190383541Y-81297034D01*
X190389963Y-81301012D01*
X190396340Y-81305025D01*
X190402672Y-81309074D01*
X190408959Y-81313159D01*
X190415203Y-81317279D01*
X190421402Y-81321436D01*
X190427557Y-81325628D01*
X190433668Y-81329857D01*
X190439736Y-81334123D01*
X190445761Y-81338424D01*
X190451741Y-81342763D01*
X190457679Y-81347139D01*
X190463574Y-81351552D01*
X190469426Y-81356002D01*
X190475235Y-81360489D01*
X190481002Y-81365014D01*
X190486726Y-81369576D01*
X190492408Y-81374177D01*
X190498048Y-81378815D01*
X190503646Y-81383492D01*
X190509202Y-81388207D01*
X190514716Y-81392961D01*
X190520189Y-81397753D01*
X190525621Y-81402584D01*
X190531012Y-81407454D01*
X190536361Y-81412363D01*
X190541670Y-81417311D01*
X190546938Y-81422299D01*
X190552166Y-81427326D01*
X190557353Y-81432393D01*
X190562500Y-81437500D01*
X190567607Y-81442647D01*
X190572674Y-81447834D01*
X190577701Y-81453062D01*
X190582689Y-81458330D01*
X190587637Y-81463639D01*
X190592546Y-81468988D01*
X190597416Y-81474379D01*
X190602247Y-81479811D01*
X190607039Y-81485284D01*
X190611793Y-81490798D01*
X190616508Y-81496354D01*
X190621185Y-81501952D01*
X190625823Y-81507592D01*
X190630424Y-81513274D01*
X190634986Y-81518998D01*
X190639511Y-81524765D01*
X190643998Y-81530574D01*
X190648448Y-81536426D01*
X190652861Y-81542321D01*
X190657237Y-81548259D01*
X190661576Y-81554239D01*
X190665877Y-81560264D01*
X190670143Y-81566332D01*
X190674372Y-81572443D01*
X190678564Y-81578598D01*
X190682721Y-81584797D01*
X190686841Y-81591041D01*
X190690926Y-81597328D01*
X190694975Y-81603660D01*
X190698988Y-81610037D01*
X190702966Y-81616459D01*
X190706909Y-81622925D01*
X190710817Y-81629436D01*
X190714690Y-81635993D01*
X190718528Y-81642595D01*
X190722332Y-81649242D01*
X190726101Y-81655935D01*
X190729836Y-81662674D01*
X190733537Y-81669459D01*
X190737204Y-81676291D01*
X190740837Y-81683168D01*
X190744436Y-81690092D01*
X190748002Y-81697063D01*
X190751535Y-81704080D01*
X190755034Y-81711144D01*
X190758501Y-81718256D01*
X190761934Y-81725414D01*
X190765335Y-81732620D01*
X190768703Y-81739874D01*
X190772039Y-81747175D01*
X190775343Y-81754524D01*
X190778615Y-81761922D01*
X190781854Y-81769367D01*
X190785062Y-81776861D01*
X190788239Y-81784403D01*
X190791384Y-81791994D01*
X190794497Y-81799634D01*
X190797580Y-81807323D01*
X190800631Y-81815060D01*
X190803652Y-81822848D01*
X190806642Y-81830684D01*
X190809602Y-81838570D01*
X190812531Y-81846506D01*
X190815430Y-81854492D01*
X190818299Y-81862528D01*
X190821138Y-81870614D01*
X190823947Y-81878751D01*
X190826727Y-81886938D01*
X190829477Y-81895176D01*
X190832198Y-81903464D01*
X190834890Y-81911804D01*
X190837553Y-81920195D01*
X190840187Y-81928637D01*
X190842793Y-81937130D01*
X190845370Y-81945676D01*
X190847919Y-81954273D01*
X190850439Y-81962921D01*
X190852932Y-81971622D01*
X190855397Y-81980376D01*
X190857834Y-81989182D01*
X190860243Y-81998040D01*
X190862626Y-82006951D01*
X190864981Y-82015915D01*
X190867308Y-82024932D01*
X190869609Y-82034002D01*
X190871884Y-82043125D01*
X190874131Y-82052302D01*
X190876352Y-82061533D01*
X190878547Y-82070817D01*
X190880716Y-82080156D01*
X190882859Y-82089549D01*
X190884976Y-82098995D01*
X190887067Y-82108497D01*
X190889133Y-82118053D01*
X190891173Y-82127663D01*
X190893188Y-82137329D01*
X190895179Y-82147050D01*
X190897144Y-82156826D01*
X190899085Y-82166657D01*
X190901001Y-82176544D01*
X190902892Y-82186487D01*
X190904760Y-82196485D01*
X190906603Y-82206539D01*
X190908422Y-82216650D01*
X190910218Y-82226817D01*
X190911990Y-82237040D01*
X190913739Y-82247320D01*
X190915464Y-82257657D01*
X190917166Y-82268051D01*
X190918845Y-82278502D01*
X190920501Y-82289010D01*
X190922134Y-82299576D01*
X190923745Y-82310199D01*
X190925334Y-82320880D01*
X190926900Y-82331619D01*
X190928445Y-82342416D01*
X190929967Y-82353271D01*
X190931468Y-82364184D01*
X190932947Y-82375156D01*
X190934404Y-82386187D01*
X190935841Y-82397276D01*
X190937256Y-82408424D01*
X190938650Y-82419632D01*
X190940024Y-82430899D01*
X190941376Y-82442225D01*
X190942709Y-82453611D01*
X190944021Y-82465057D01*
X190945313Y-82476563D01*
X190946584Y-82488128D01*
X190947836Y-82499754D01*
X190949068Y-82511441D01*
X190950281Y-82523187D01*
X190951474Y-82534995D01*
X190952648Y-82546863D01*
X190953803Y-82558793D01*
X190954939Y-82570784D01*
X190956056Y-82582836D01*
X190957155Y-82594949D01*
X190958235Y-82607124D01*
X190959296Y-82619361D01*
X190960340Y-82631660D01*
X190961366Y-82644021D01*
X190962374Y-82656444D01*
X190963364Y-82668930D01*
X190964336Y-82681478D01*
X190965291Y-82694089D01*
X190966229Y-82706763D01*
X190967150Y-82719500D01*
X190968055Y-82732301D01*
X190968942Y-82745164D01*
X190969813Y-82758091D01*
X190970667Y-82771082D01*
X190971505Y-82784137D01*
X190972327Y-82797255D01*
X190973923Y-82823685D01*
X190975457Y-82850373D01*
X190976929Y-82877319D01*
X190978341Y-82904526D01*
X190979694Y-82931995D01*
X190980990Y-82959727D01*
X190982229Y-82987722D01*
X190983414Y-83015983D01*
X190984544Y-83044511D01*
X190985622Y-83073307D01*
X190986649Y-83102371D01*
X190987625Y-83131706D01*
X190988553Y-83161313D01*
X190989433Y-83191192D01*
X190990267Y-83221346D01*
X190991056Y-83251775D01*
X190991801Y-83282480D01*
X190992503Y-83313464D01*
X190993164Y-83344727D01*
X190993785Y-83376270D01*
X190994367Y-83408094D01*
X190994912Y-83440202D01*
X190995420Y-83472593D01*
X190995894Y-83505270D01*
X190996333Y-83538234D01*
X190996740Y-83571486D01*
X190997116Y-83605026D01*
X190997462Y-83638857D01*
X190997779Y-83672980D01*
X190998068Y-83707396D01*
X190998331Y-83742105D01*
X190998569Y-83777111D01*
X190998783Y-83812413D01*
X190998975Y-83848012D01*
X190999146Y-83883911D01*
X190999296Y-83920110D01*
X190999428Y-83956611D01*
X190999640Y-84030523D01*
X190999791Y-84105657D01*
X190999893Y-84182022D01*
X190999955Y-84259629D01*
X190999987Y-84338488D01*
X191000000Y-84500000D01*
D10*
X191000000Y-122000000D02*
X191000000Y-84500000D01*
D12*
%TO.P,C3,1*%
%TO.N,Net-(U1A-+)*%
X134540000Y-97515000D03*
D13*
%TO.P,C3,2*%
%TO.N,GND*%
X137040000Y-97515000D03*
%TD*%
%TO.P,R5,1*%
%TO.N,Net-(U2A-+)*%
X131920000Y-105015000D03*
%TO.P,R5,2*%
%TO.N,Net-(U1A-+)*%
X139540000Y-105015000D03*
%TD*%
%TO.P,C8,1*%
%TO.N,Net-(C13-Pad1)*%
X143040000Y-115515000D03*
%TO.P,C8,2*%
%TO.N,GND*%
X145540000Y-115515000D03*
%TD*%
D14*
%TO.P,D1,1,K*%
%TO.N,GND*%
X182550000Y-100015000D03*
D15*
%TO.P,D1,2,A*%
%TO.N,Net-(D1-A)*%
X180010000Y-100015000D03*
%TD*%
D13*
%TO.P,C5,1*%
%TO.N,Net-(C5-Pad1)*%
X177350000Y-111015000D03*
%TO.P,C5,2*%
%TO.N,Net-(C5-Pad2)*%
X174850000Y-111015000D03*
%TD*%
D16*
%TO.P,C1,1*%
%TO.N,Net-(BT2-+)*%
X125540000Y-97515000D03*
D13*
%TO.P,C1,2*%
%TO.N,GND*%
X123040000Y-97515000D03*
%TD*%
%TO.P,C10,1*%
%TO.N,Net-(C10-Pad1)*%
X168850000Y-106015000D03*
%TO.P,C10,2*%
%TO.N,Net-(C10-Pad2)*%
X171350000Y-106015000D03*
%TD*%
%TO.P,C7,1*%
%TO.N,Net-(U2A--)*%
X152040000Y-105515000D03*
%TO.P,C7,2*%
%TO.N,Net-(C7-Pad2)*%
X149540000Y-105515000D03*
%TD*%
%TO.P,R2,1*%
%TO.N,Net-(BT2-+)*%
X135540000Y-83895000D03*
%TO.P,R2,2*%
%TO.N,Net-(U1A-+)*%
X135540000Y-91515000D03*
%TD*%
%TO.P,C9,1*%
%TO.N,Net-(U1A--)*%
X165350000Y-106015000D03*
%TO.P,C9,2*%
%TO.N,Net-(C10-Pad1)*%
X162850000Y-106015000D03*
%TD*%
%TO.P,C6,1*%
%TO.N,GND*%
X139540000Y-111515000D03*
%TO.P,C6,2*%
%TO.N,Net-(C2-Pad1)*%
X137040000Y-111515000D03*
%TD*%
D16*
%TO.P,BT2,1,+*%
%TO.N,Net-(BT2-+)*%
X131540000Y-83895000D03*
D13*
%TO.P,BT2,2,-*%
%TO.N,GND*%
X127940000Y-83895000D03*
%TD*%
D17*
%TO.P,U1,1*%
%TO.N,Net-(C10-Pad1)*%
X165500000Y-100635000D03*
D13*
%TO.P,U1,2,-*%
%TO.N,Net-(U1A--)*%
X168040000Y-100635000D03*
%TO.P,U1,3,+*%
%TO.N,Net-(U1A-+)*%
X170580000Y-100635000D03*
%TO.P,U1,4,V-*%
%TO.N,GND*%
X173120000Y-100635000D03*
%TO.P,U1,5*%
%TO.N,N/C*%
X173120000Y-93015000D03*
%TO.P,U1,6*%
X170580000Y-93015000D03*
%TO.P,U1,7*%
X168040000Y-93015000D03*
%TO.P,U1,8,V+*%
%TO.N,Net-(BT2-+)*%
X165500000Y-93015000D03*
%TD*%
D14*
%TO.P,D2,1,K*%
%TO.N,Net-(D1-A)*%
X180000000Y-92015000D03*
D15*
%TO.P,D2,2,A*%
%TO.N,GND*%
X182540000Y-92015000D03*
%TD*%
D18*
%TO.P,J1,S*%
%TO.N,GND*%
X119540000Y-108515000D03*
D13*
%TO.P,J1,T*%
%TO.N,Net-(J1-PadT)*%
X119540000Y-112115000D03*
%TD*%
%TO.P,R11,1*%
%TO.N,Net-(C13-Pad1)*%
X148420000Y-115515000D03*
%TO.P,R11,2*%
%TO.N,Net-(U2A--)*%
X156040000Y-115515000D03*
%TD*%
D17*
%TO.P,U2,1*%
%TO.N,Net-(C7-Pad2)*%
X149730000Y-100325000D03*
D13*
%TO.P,U2,2,-*%
%TO.N,Net-(U2A--)*%
X152270000Y-100325000D03*
%TO.P,U2,3,+*%
%TO.N,Net-(U2A-+)*%
X154810000Y-100325000D03*
%TO.P,U2,4,V-*%
%TO.N,GND*%
X157350000Y-100325000D03*
%TO.P,U2,5*%
%TO.N,N/C*%
X157350000Y-92705000D03*
%TO.P,U2,6*%
X154810000Y-92705000D03*
%TO.P,U2,7*%
X152270000Y-92705000D03*
%TO.P,U2,8,V+*%
%TO.N,Net-(BT2-+)*%
X149730000Y-92705000D03*
%TD*%
%TO.P,R13,1*%
%TO.N,Net-(C10-Pad2)*%
X180730000Y-111015000D03*
%TO.P,R13,2*%
%TO.N,Net-(D1-A)*%
X188350000Y-111015000D03*
%TD*%
%TO.P,C11,1*%
%TO.N,Net-(D1-A)*%
X180025000Y-86015000D03*
%TO.P,C11,2*%
%TO.N,GND*%
X182525000Y-86015000D03*
%TD*%
D18*
%TO.P,J3,S*%
%TO.N,GND*%
X188040000Y-97515000D03*
D13*
%TO.P,J3,T*%
%TO.N,Net-(D1-A)*%
X188040000Y-101115000D03*
%TD*%
%TO.P,R4,1*%
%TO.N,Net-(U1A-+)*%
X124040000Y-91515000D03*
%TO.P,R4,2*%
%TO.N,GND*%
X124040000Y-83895000D03*
%TD*%
%TO.P,R1,1*%
%TO.N,GND*%
X120920000Y-105015000D03*
%TO.P,R1,2*%
%TO.N,Net-(U2A-+)*%
X128540000Y-105015000D03*
%TD*%
%TO.P,C2,1*%
%TO.N,Net-(C2-Pad1)*%
X134540000Y-111515000D03*
%TO.P,C2,2*%
%TO.N,Net-(U2A-+)*%
X132040000Y-111515000D03*
%TD*%
%TO.P,R7,1*%
%TO.N,Net-(J1-PadT)*%
X120730000Y-115015000D03*
%TO.P,R7,2*%
%TO.N,Net-(C2-Pad1)*%
X128350000Y-115015000D03*
%TD*%
%TO.P,C13,1*%
%TO.N,Net-(C13-Pad1)*%
X143040000Y-111515000D03*
%TO.P,C13,2*%
%TO.N,GND*%
X145540000Y-111515000D03*
%TD*%
%TO.P,R12,1*%
%TO.N,Net-(U1A--)*%
X166350000Y-110515000D03*
%TO.P,R12,2*%
%TO.N,Net-(C10-Pad1)*%
X158730000Y-110515000D03*
%TD*%
%TO.P,R8,1*%
%TO.N,Net-(U2A--)*%
X160040000Y-115515000D03*
%TO.P,R8,2*%
%TO.N,Net-(R8-Pad2)*%
X160040000Y-123135000D03*
%TD*%
D19*
%TO.P,RV1,1,1*%
%TO.N,Net-(R8-Pad2)*%
X169040000Y-123015000D03*
D20*
%TO.P,RV1,2,2*%
%TO.N,Net-(C7-Pad2)*%
X174040000Y-123015000D03*
%TO.P,RV1,3,3*%
%TO.N,Net-(C5-Pad1)*%
X179040000Y-123015000D03*
%TD*%
D13*
%TO.P,R6,1*%
%TO.N,Net-(C5-Pad2)*%
X174730000Y-106515000D03*
%TO.P,R6,2*%
%TO.N,Net-(U1A--)*%
X182350000Y-106515000D03*
%TD*%
%TO.P,C12,1*%
%TO.N,Net-(C10-Pad1)*%
X168850000Y-111015000D03*
%TO.P,C12,2*%
%TO.N,Net-(C10-Pad2)*%
X171350000Y-111015000D03*
%TD*%
M02*
