M48
; DRILL file {KiCad 9.0.7} date 2026-04-25T17:51:22+0200
; FORMAT={-:-/ absolute / metric / decimal}
; #@! TF.CreationDate,2026-04-25T17:51:22+02:00
; #@! TF.GenerationSoftware,Kicad,Pcbnew,9.0.7
; #@! TF.FileFunction,Plated,1,2,PTH
FMAT,2
METRIC
; #@! TA.AperFunction,Plated,PTH,ComponentDrill
T1C0.600
; #@! TA.AperFunction,Plated,PTH,ComponentDrill
T2C0.800
; #@! TA.AperFunction,Plated,PTH,ComponentDrill
T3C0.900
; #@! TA.AperFunction,Plated,PTH,ComponentDrill
T4C1.200
%
G90
G05
T1
X119.54Y-108.515
X119.54Y-112.115
X127.94Y-83.895
X131.54Y-83.895
X188.04Y-97.515
X188.04Y-101.115
T2
X120.73Y-115.015
X120.92Y-105.015
X123.04Y-97.515
X124.04Y-83.895
X124.04Y-91.515
X125.54Y-97.515
X128.35Y-115.015
X128.54Y-105.015
X131.92Y-105.015
X132.04Y-111.515
X134.54Y-97.515
X134.54Y-111.515
X135.54Y-83.895
X135.54Y-91.515
X137.04Y-97.515
X137.04Y-111.515
X139.54Y-105.015
X139.54Y-111.515
X143.04Y-111.515
X143.04Y-115.515
X145.54Y-111.515
X145.54Y-115.515
X148.42Y-115.515
X149.54Y-105.515
X149.73Y-92.705
X149.73Y-100.325
X152.04Y-105.515
X152.27Y-92.705
X152.27Y-100.325
X154.81Y-92.705
X154.81Y-100.325
X156.04Y-115.515
X157.35Y-92.705
X157.35Y-100.325
X158.73Y-110.515
X160.04Y-115.515
X160.04Y-123.135
X162.85Y-106.015
X165.35Y-106.015
X165.5Y-93.015
X165.5Y-100.635
X166.35Y-110.515
X168.04Y-93.015
X168.04Y-100.635
X168.85Y-106.015
X168.85Y-111.015
X170.58Y-93.015
X170.58Y-100.635
X171.35Y-106.015
X171.35Y-111.015
X173.12Y-93.015
X173.12Y-100.635
X174.73Y-106.515
X174.85Y-111.015
X177.35Y-111.015
X180.025Y-86.015
X180.73Y-111.015
X182.35Y-106.515
X182.525Y-86.015
X188.35Y-111.015
T3
X180.0Y-92.015
X180.01Y-100.015
X182.54Y-92.015
X182.55Y-100.015
T4
X169.04Y-123.015
X174.04Y-123.015
X179.04Y-123.015
M30
